<svg width="483" height="243" viewBox="0 0 483 243" fill="none" xmlns="http://www.w3.org/2000/svg">
<path fill-rule="evenodd" clip-rule="evenodd" d="M124.448 55.1261C124.537 55.4666 124.818 55.7678 124.95 56.1195C126 58.4355 127.399 59.6239 130.13 58.3665C131.975 57.5499 133.697 58.373 135.233 59.5531C135.974 60.1586 135.504 60.3943 134.941 61.1476C134.043 62.3083 134.049 63.8019 134.574 64.7109C134.026 64.5641 133.478 64.4173 133.098 64.3156C132.985 64.7374 133.269 64.8587 133.167 65.2383C132.443 64.9084 132.588 65.7158 132.101 65.676C130.651 65.6942 130.838 64.6593 129.752 65.0013C130.059 65.0382 130.314 63.7503 129.88 64.3574C129.622 65.8253 127.329 65.6177 126.059 64.961C126.086 65.8723 125.261 64.5664 124.785 65.1622C124.7 65.8175 125.172 66.0796 125.526 66.4456C125.678 66.2151 125.872 65.9959 126.128 65.8837C127.018 66.4387 127.374 67.3025 128.264 67.8575C127.621 67.7303 126.873 67.4849 126.738 67.991C128.933 68.3983 129.453 68.3116 131.552 68.7384C131.329 69.402 132.091 69.4253 132.081 69.9653C132.927 70.0112 133.381 69.4997 134.154 69.4808C134.863 70.7107 137.45 70.4996 138.642 71.9493C139.671 71.8182 141.123 71.1221 141.259 72.4695C142.006 72.715 142.007 72.0371 142.589 72.0574C143.018 72.3082 142.272 73.2384 142.851 73.4387C143.009 72.8482 143.604 73.3241 144.195 72.8044C144.405 73.5387 145.31 73.8716 145.627 74.5441C144.713 74.7513 143.779 74.8629 142.891 74.8057C143.102 74.8622 143.293 74.823 143.381 74.6656C142.316 74.4254 141.85 73.8033 141.159 73.347C140.796 73.521 140.944 74.1484 141.214 74.4918C141.281 74.2387 141.287 73.8787 141.552 73.9043C141.695 74.2138 141.891 74.4925 142.087 74.7711C141.138 74.607 140.252 74.3699 139.314 74.1636C137.501 73.678 135.678 73.2345 133.831 72.8754C133.494 72.7851 132.9 73.4849 132.596 73.9458C132.455 74.1341 132.775 74.6267 132.918 74.9362C133.235 75.6088 133.806 76.847 133.955 76.7965C137.468 75.6581 138.981 78.7761 140.55 80.5075C141.039 81.0452 141.55 81.4986 142.03 81.8985C139.037 81.0967 137.135 80.2706 133.589 79.6819C133.668 79.3867 134.028 79.3927 134.191 79.12C133.176 79.029 132.731 79.6783 131.644 79.5225C131.669 79.2581 131.802 78.932 131.518 78.8107C131.428 79.1481 130.967 78.8439 130.791 78.6609C130.441 79.2906 131.524 79.1286 131.334 79.6656C129.672 80.3052 128.097 78.9338 125.975 79.2692C125.669 78.5545 124.551 78.3452 124.031 77.754C123.519 78.6563 124.018 79.1519 123.02 79.3365C122.763 78.273 121.862 77.0824 123.488 76.7493C123.108 76.6477 123.477 76.1136 123.14 76.0233C123.015 77.1651 121.543 76.5898 120.34 76.3579C120.344 77.3536 118.613 77.0706 118.591 76.4771C118.298 76.8959 117.871 77.143 117.05 76.8328C116.321 75.5072 117.903 75.8408 118.047 75.4724C117.37 75.4717 116.185 74.8377 115.85 75.2452C117.237 75.7979 114.598 75.362 115.595 76.5331C116.101 76.6687 115.899 76.0721 116.661 76.0954C116.615 76.942 116.145 77.1778 115.456 77.2193C114.67 76.7825 114.947 75.4102 114.857 75.0698C114.208 75.3026 113.327 74.2075 112.381 75.0391C113.646 74.7001 115.129 75.9111 114.268 76.7652C113.264 76.632 114.103 75.8622 113.724 75.7606C113.181 75.9316 111.402 75.9973 112.173 74.8027C111.102 74.9225 111.147 75.4317 111.429 76.2307C110.288 76.1058 110.587 75.327 111.153 75.0717C110.464 75.1131 110.749 74.5565 110.274 74.4745C109.641 74.9829 110.432 75.7375 109.948 76.1955C109.442 76.06 109.589 75.5117 109.404 75.1908C108.505 75.1758 108.04 75.7295 106.913 75.3824C106.696 73.8324 105.416 75.0714 104.763 73.6307C104.711 74.1594 105.099 74.3989 104.368 74.4291C103.862 74.2936 104.276 73.5908 103.824 73.4244C103.773 73.9531 103.679 74.4706 103.151 74.4194C103.185 74.2929 103.177 74.155 102.954 74.1408C103.045 73.8033 103.601 74.088 103.557 73.5788C100.434 73.601 99.8098 73.5694 98.2018 71.6467C97.6582 72.4956 96.3772 71.8811 95.7819 71.4051C95.854 72.1478 95.3061 72.0009 95.1087 72.4001C96.3259 72.4098 95.5406 73.1488 95.3854 73.5593C96.2027 74.0495 96.6304 73.8024 97.4559 74.4305C97.5524 73.733 98.415 74.0546 98.8004 73.7962C98.8868 74.3166 99.294 74.6518 99.5407 75.0795C99.7185 74.5847 101.399 74.7186 101.542 75.0281C101.238 75.4891 99.8141 74.5651 99.9448 75.5947C101.134 75.3709 100.889 76.1188 100.07 76.3064C103.063 77.1083 102.883 77.1053 105.567 77.3724C105.6 77.9237 104.813 78.1648 105.101 78.6039C105.755 77.5132 107.037 79.3034 108.122 79.6392C107.773 79.5911 107.237 79.4021 107.115 79.686C107.325 80.4203 107.812 79.7824 107.98 80.5054C107.62 80.4994 107.89 80.8428 108.12 80.9949C108.638 80.4104 108.472 80.1852 108.85 79.789C110.861 80.3733 113.932 81.5578 114.286 83.7773C113.433 82.9158 112.273 83.8709 111.266 82.742C111.257 83.282 110.751 83.1465 110.857 83.7626C112.264 84.411 113.256 84.5864 114.745 85.4373C114.401 85.707 114.387 85.9292 114.87 86.1491C114.938 85.896 115.006 85.6429 115.416 85.798C115.073 86.0677 115.058 86.2899 115.542 86.5098C115.528 86.0541 116.757 86.0216 116.759 86.5194C115.396 86.3802 116.147 87.6214 115.379 87.9582C115.169 87.9017 114.916 87.8339 114.705 87.7775C114.405 87.3806 114.67 86.7283 114.2 86.9641C114.43 87.1162 114.183 87.3663 114.253 87.611C113.873 87.5094 113.505 87.3656 113.137 87.2218C113.132 86.9039 112.916 86.5296 112.59 86.3971C112.702 86.6532 112.73 86.8866 112.727 87.0666C112.264 86.9424 111.853 86.7873 111.401 86.6209C111.424 86.5365 111.488 86.4635 111.595 86.4017C111.216 86.3001 110.952 86.2745 110.78 86.4093C110.654 86.3754 110.485 86.3302 110.359 86.2964C110.359 86.2964 110.381 86.212 110.392 86.1698C110.12 86.0064 110.013 86.0682 109.948 86.1413C109.358 85.9831 108.749 85.7294 108.17 85.5291C108.184 85.3069 108.114 85.0621 108.126 85.0199C108.111 85.2421 107.383 85.0923 107.139 85.1624C107.012 85.1285 106.928 85.1059 106.802 85.072C106.802 85.072 106.844 85.0833 106.909 85.0103C106.754 84.7429 106.479 84.7595 106.15 84.807C105.602 84.6602 105.107 84.4825 104.571 84.2935C104.942 84.2573 105.748 84.7897 105.788 84.3031C105.114 83.4446 104.133 83.9049 103.299 83.139C103.304 83.4568 103.163 83.6451 103.034 83.7912C102.907 83.7573 102.739 83.7122 102.612 83.6783C102.461 83.2309 101.767 82.9546 101.328 83.2439C100.894 82.6752 101.689 82.572 101.274 82.099C101.031 82.6669 99.7781 82.2859 99.7329 82.4547C99.9437 82.5111 100.09 82.6407 100.129 82.832C99.4965 82.6626 98.8869 82.4088 98.266 82.1972C98.2886 82.1129 98.3225 81.9863 98.123 81.8877C98.1004 81.972 98.047 82.0029 97.9822 82.076C96.8246 81.6754 95.6137 81.3057 94.4561 80.9051C94.5209 80.8321 94.5856 80.759 94.3892 80.4803C94.2206 80.4352 94.0942 80.4013 93.9256 80.3561C93.8917 80.4826 93.8578 80.6092 93.6584 80.5105C93.6471 80.5527 93.6358 80.5949 93.6245 80.6371C93.1187 80.5016 92.655 80.3773 92.2531 80.36C92.3291 80.2448 92.4361 80.183 92.5121 80.0678C92.0485 79.9436 91.8008 80.1936 91.6065 80.4128C91.3197 80.4716 91.0021 80.4769 90.704 80.5779C90.8109 80.5161 90.9291 80.4121 90.9856 80.2012C89.3214 80.343 88.0178 79.8129 87.0145 79.6797C87.0484 79.5531 87.1244 79.4379 87.1275 79.2579C87.1501 79.1735 86.5096 78.8663 86.4562 78.8972C86.0481 79.2399 85.7018 79.6896 85.3667 80.0971C85.6196 80.1649 85.8303 80.2213 86.0523 80.2356C85.9115 80.4239 85.7173 80.6431 85.6947 80.7275C86.9396 80.9706 87.2163 82.1298 88.3079 81.4277C88.3018 81.7877 88.4334 82.1394 88.4386 82.4573C88.4386 82.4573 88.4386 82.4572 88.4273 82.4994C88.1796 82.7495 87.9545 82.9152 87.7098 82.9853C87.7211 82.9431 87.6595 82.8362 87.5752 82.8136C87.5526 82.898 87.5413 82.9401 87.5187 83.0245C86.7117 83.1699 85.9344 82.1931 85.2485 80.201C84.5124 79.9134 83.8967 80.0197 83.3005 80.2216C83.1011 80.1229 82.8369 80.0973 82.6118 80.2631C82.7495 80.2548 82.8225 80.3195 82.9489 80.3534C82.4257 80.6201 81.9025 80.8868 81.3485 81.1C80.2095 81.4729 79.0397 81.7924 77.9121 82.1231C77.8278 82.1005 77.7014 82.0667 77.6058 82.0862C77.5636 82.075 77.5215 82.0637 77.4793 82.0524C77.3107 82.0072 77.1309 82.0042 76.9088 81.9899C76.3507 83.061 75.8428 82.4276 74.6947 83.3406C76.0105 83.1506 76.7157 83.3848 77.5751 83.8863C77.609 83.7598 77.7469 83.7515 77.8116 83.6785C77.8312 83.7741 77.9041 83.8389 77.935 83.8923C77.8815 83.9232 77.7859 83.9428 77.6594 83.9089C77.8589 84.0076 78.0162 84.0949 78.2043 84.2358C78.2156 84.1936 78.2269 84.1514 78.2382 84.1092C79.7803 84.9293 81.3676 85.5806 82.9888 86.1054C86.63 87.3524 90.3134 88.6106 93.9547 89.8575C93.7913 90.1301 93.451 90.2198 93.1642 90.2786C93.2537 90.619 94.2139 91.4188 93.6938 91.5054C93.1037 91.3473 93.0255 90.9647 92.4911 91.2736C92.5702 90.9784 92.5958 90.714 92.6328 90.4074C90.5235 91.1985 89.4933 90.1539 87.611 89.4235C87.239 90.1376 86.7259 89.1863 86.3373 89.6247C86.5368 89.7234 87.2555 90.4132 86.685 90.3508C85.6169 90.2906 85.5961 89.0192 84.6145 89.4795C84.7388 89.0156 84.7028 88.6443 84.2813 88.5313C84.0666 89.3327 83.171 88.4599 83.6081 89.5263C83.2153 88.969 82.6582 89.3622 82.1802 89.4602C85.4443 91.1033 89.2056 90.8905 92.6547 92.8545C92.7986 92.4862 92.411 92.2467 92.7821 92.2105C93.8697 92.3663 94.2564 93.2837 95.3275 93.1638C95.7252 92.1854 94.5123 93.1714 94.6706 92.5809C95.6327 92.025 96.4047 92.6839 97.554 92.9467C97.4215 93.2728 97.5953 93.6358 97.8451 93.8836C97.036 93.5312 96.9136 92.6394 95.971 93.291C96.5837 93.3648 97.4257 94.2685 97.8451 93.8836C98.137 94.1427 98.5472 94.2978 98.7949 94.0477C98.2049 93.8896 98.8494 93.339 99.1331 93.4602C99.7366 94.074 100.564 93.3463 100.74 94.2072C99.9586 94.0883 98.9501 93.6372 98.9348 94.5373C100.41 94.9325 101.141 94.9023 101.733 95.5583C101.773 95.0717 102.04 94.9173 102.546 95.0528C103.137 96.3867 105.196 95.4465 105.961 95.2898C106.143 95.7906 106.485 96.1988 106.881 96.5761C106.207 96.3954 105.533 96.2147 104.858 96.034C104.563 95.955 104.124 96.2442 103.888 96.4521C103.77 96.5561 103.749 97.1383 103.833 97.1609C103.918 97.1835 103.96 97.1947 104.033 97.2595C103.926 97.3213 103.892 97.4478 104.069 97.6308C104.033 97.2595 104.954 97.868 104.993 98.0593C104.544 97.7129 103.784 98.1874 104.447 98.4103C104.841 98.2898 104.971 98.1436 105.058 97.9862C105.996 98.8704 106.725 100.196 107.758 101.06C107.558 100.962 107.37 100.821 107.213 100.734C106.496 100.542 107.698 101.451 106.875 101.321C105.928 100.977 104.83 100.186 104.077 100.3C104.102 100.036 104.235 99.7096 103.951 99.5883C102.931 101.033 99.9191 98.282 98.9149 98.8266C99.1678 98.8944 99.4936 99.0269 99.1112 99.1053C98.2878 98.9751 98.9301 97.9266 98.1067 97.7964C97.8025 98.2573 98.7658 98.8771 98.1614 98.9412C97.7634 98.066 97.8663 98.8621 97.155 98.988C96.8044 98.442 95.9275 98.3426 96.1361 97.9012C94.1163 99.0327 92.4723 96.7387 90.918 96.6387C91.0062 95.8034 90.1099 95.6084 89.4386 95.2477C89.2238 96.0491 90.5396 95.8592 90.443 96.5566C88.277 95.705 85.0749 96.0224 82.8597 96.1973C82.7958 95.5925 83.4054 95.8463 83.5185 95.4245C82.656 95.103 82.8288 96.1438 82.174 96.0588C81.1777 94.8877 80.0189 93.3114 78.4967 94.4406C78.8338 94.5309 79.3735 94.5399 79.4322 94.8268C78.7999 94.6574 76.7554 95.3754 76.0881 94.1569C76.378 93.9181 76.4714 93.4006 76.9576 93.4405C77.0584 93.7387 77.4039 93.9669 77.8253 94.0799C77.8262 93.402 78.5736 93.6475 78.7514 93.1526C77.892 92.6511 78.1718 93.6302 77.4778 93.3538C77.5518 92.7407 77.9393 92.9802 77.6195 92.4876C77.1889 92.9147 75.6263 92.6769 76.0078 93.2764C75.5707 92.2099 73.4584 93.181 72.7911 91.9624C73.1067 91.4593 73.9199 92.8074 74.0647 91.7612C73.6771 91.5217 72.7807 91.3267 72.1762 91.3908C71.8433 92.2961 72.6964 91.3041 72.5804 91.9059C72.5846 92.9016 70.216 92.1314 70.6901 92.8913C72.1919 92.3443 74.0197 93.7835 74.3835 92.9316C74.8267 93.638 75.827 93.9513 76.0028 94.8121C75.1599 94.5863 75.2945 94.7579 73.805 94.5849C73.7638 93.8957 72.3131 92.0604 71.9875 93.7814C72.8448 93.7851 73.0073 94.1903 73.0629 94.6573C72.3442 93.9674 71.9013 95.1145 71.1745 94.2869C71.1366 95.2713 73.1637 94.9555 73.5799 94.7506C73.5121 95.0037 73.2058 94.9668 73.2418 95.3381C76.2969 95.569 78.0663 96.7212 80.4143 98.0737C80.666 96.9658 78.9288 97.0428 79.0623 96.0388C79.3152 96.1065 79.3716 95.8956 79.5937 95.9099C79.4972 96.6074 80.2559 96.8107 81.144 96.8678C80.9519 97.5849 81.3704 97.8778 81.6171 98.3056C82.9286 97.12 84.8748 98.4551 86.1639 99.2074C86.0848 99.5027 85.7281 99.3167 85.6181 99.5585C87.0368 100.165 87.9137 100.264 88.3053 99.6456C88.1501 100.056 89.8852 99.4813 89.9264 100.17C89.7661 100.263 88.8492 100.65 89.5318 100.969C90.0385 100.426 91.1992 100.647 92.2755 100.845C92.2663 101.385 92.3332 101.81 92.805 102.072C93.539 101.862 92.517 100.955 93.2705 100.84C93.688 101.811 95.3358 101.394 95.8849 102.716C95.8632 102.123 96.0883 101.957 96.698 102.211C96.588 102.453 95.9765 103.555 96.5562 103.077C96.5068 102.25 98.4539 102.907 98.2339 103.391C96.3373 102.883 97.2205 104.476 95.5593 104.437C95.6158 104.226 95.4163 104.128 95.4194 103.948C95.5324 103.526 96.1308 103.822 96.0361 103.164C94.9402 102.87 95.0872 102.322 94.1476 102.793C93.797 102.247 93.3838 102.272 93.871 101.634C92.9859 101.397 93.2513 102.598 92.47 102.479C91.9221 102.333 91.8439 101.95 91.0708 101.969C91.1273 101.758 91.1839 101.547 91.1983 101.325C89.8938 101.473 90.6503 101.178 89.3931 101.655C88.4802 101.184 88.4277 100.537 88.4595 99.913C87.9507 99.9575 88.3116 101.139 87.7298 101.119C86.4231 100.769 85.751 101.086 84.9059 100.362C84.9963 100.025 85.5833 100.363 85.7046 100.079C85.4096 99.9999 85.061 99.9517 84.7547 99.9148C84.4896 100.567 85.0909 100.683 84.5564 100.992C87.2466 100.899 89.0571 102.74 91.4666 102.346C91.6209 102.614 91.6569 102.985 91.5213 103.491C92.7158 103.585 93.7418 103.634 92.3344 102.986C92.7055 102.949 92.9727 102.795 93.3551 102.717C93.1908 103.667 94.4861 104.059 94.487 103.382C94.3679 104.163 95.3813 103.079 95.1583 103.742C95.3568 104.519 93.8621 104.028 93.086 104.227C93.7707 105.043 95.5562 104.617 96.7086 104.7C95.6479 105.456 98.4593 105.079 98.5118 105.726C98.4101 106.105 96.901 105.837 97.6422 106.442C98.6773 105.951 99.7362 106.551 100.724 105.731C101.88 107.487 105.093 105.274 106.557 107.565C107.033 106.969 108.176 107.592 108.698 108.003C108.532 108.456 107.307 107.63 107.576 108.652C108.368 108.729 109.007 108.538 109.395 108.1C109.859 108.224 109.754 108.783 110.218 108.908C110.319 108.528 111.571 108.411 111.491 108.706C111.424 108.959 111.086 108.869 110.749 108.779C110.602 109.327 111.001 109.524 111.293 109.783C111.384 109.446 111.37 108.99 111.688 108.985C111.903 110.037 113.181 110.832 114.382 111.741C114.581 110.664 115.694 112.409 115.727 111.107C114.884 110.881 113.439 111.217 114.581 110.664C113.989 110.008 113.088 110.671 112.707 110.072C112.741 109.945 112.786 109.777 112.82 109.65C114.087 109.809 114.782 111.261 116.093 110.753C115.798 110.674 115.396 110.657 115.422 110.392C115.674 110.46 115.731 110.249 115.953 110.264C116.405 110.43 115.991 111.133 116.775 111.072C116.28 109.718 119.178 111.715 119.45 110.025C119.795 110.931 119.917 109.969 120.864 110.314C120.807 110.524 121.007 110.623 121.003 110.803C120.944 111.194 119.651 111.3 120.33 111.798C120.55 111.315 121.848 112.205 121.871 111.442C121.447 111.51 120.908 110.823 121.467 110.927C122.431 110.869 122.32 112.467 123.285 111.731C123.032 111.663 122.774 111.277 123.145 111.241C124.209 112.159 125.008 111.876 126.165 112.277C125.485 112.456 124.473 112.185 124.093 112.761C125.161 112.821 125.694 113.19 125.896 113.787C126.226 113.061 125.504 112.552 126.362 112.555C126.318 113.222 127.623 113.074 127.633 113.71C127.362 112.868 128.655 112.763 128.099 112.478C127.252 113.11 128.024 111.916 127.695 111.963C127.731 112.334 126.317 112.046 126.492 111.731C127.071 111.932 128.283 111.623 127.822 111.319C127.686 111.825 127.041 111.2 127.151 110.958C127.75 110.576 127.814 111.181 128.564 111.247C128.888 110.881 127.986 110.369 128.706 110.381C130.074 110.838 131.012 111.722 132.929 111.648C132.012 112.035 134.032 112.757 133.191 113.029C132.638 112.564 131.346 111.992 130.772 112.787C131.989 112.797 134.068 113.128 134.73 114.029C133.207 113.983 132.915 113.724 131.932 113.008C131.796 114.192 131.264 114.321 130.737 115.445C131.462 115.775 132.562 115.211 132.278 115.09C131.756 114.679 131.366 115.795 131.283 115.094C131.494 114.473 131.976 114.195 132.684 114.249C133.093 115.082 133.631 114.593 134.501 115.053C133.98 115.817 135.032 115.602 135.045 116.057C134.511 116.366 134.444 115.941 133.843 115.826C133.787 117.212 134.781 116.032 135.52 116.139C135.461 116.53 135.339 116.814 135.126 116.938C135.558 117.009 135.941 116.93 136.135 116.711C135.138 116.218 136.632 114.855 137.818 115.489C138.073 116.055 138.233 115.962 137.872 116.634C138.336 116.758 138.446 116.517 138.867 116.629C138.664 117.389 139.701 117.395 139.593 118.135C140.558 118.077 140.743 118.398 141.134 117.779C141.04 117.121 140.249 117.542 140.266 117.14C140.357 116.803 141.588 116.59 141.737 117.217C141.556 117.892 140.926 118.221 141.999 118.599C141.66 117.333 142.381 118.52 142.812 118.093C142.523 117.654 142.085 117.266 142.353 116.433C142.48 116.467 142.606 116.501 142.733 116.535C143.109 116.817 143.527 117.11 143.903 117.391C143.502 117.374 143.13 117.41 142.883 117.66C143.402 118.251 144.217 118.244 144.968 118.309C145.144 118.492 145.321 118.675 145.498 118.858C145.177 119.044 144.938 119.431 144.544 119.552C145.067 119.963 143.984 120.125 144.613 120.475C144.665 119.946 145.089 119.879 145.483 119.758C145.471 120.478 146.721 121.039 146.152 121.475C146.565 121.45 147.086 121.363 147.541 121.35C147.603 121.456 147.718 121.533 147.78 121.639C147.841 121.746 147.968 121.78 148.072 121.899C147.362 122.522 145.941 122.096 145.004 122.388C145.289 121.831 144.6 121.873 144.404 121.594C144.605 122.19 143.192 121.902 144.009 122.392C144.603 121.693 144.593 122.91 145.155 122.835C145.553 121.857 146.7 123.475 147.842 122.922C147.752 123.26 147.765 123.715 147.448 123.721C147.291 123.633 146.645 123.008 146.498 123.556C147.046 123.703 147.346 124.1 148.119 124.081C148.137 123.679 148.465 123.632 148.918 123.798C148.739 123.117 148.91 122.982 149.591 122.803C149.579 123.523 148.89 123.565 149.646 123.948C149.896 123.518 150.262 123.164 150.606 122.894C150.648 122.905 150.69 122.917 150.774 122.939C151.154 123.041 151.552 123.238 151.92 123.382C151.864 123.593 151.265 123.975 151.843 124.175C151.999 123.765 152.17 123.63 152.288 123.526C152.783 123.703 153.32 123.892 153.803 124.112C152.547 123.911 153.623 124.109 153.465 124.7C153.212 124.632 153.155 124.843 152.933 124.829C153.44 124.286 152.015 124.04 152.009 124.4C152.546 124.589 152.01 125.576 151.754 125.688C152.89 125.495 153.564 125.676 154.094 125.049C155.114 125.458 156.103 125.814 155.517 126.651C154.904 126.577 155.04 126.071 154.706 125.801C153.62 126.143 152.552 126.083 151.891 126.358C152.625 126.148 152.37 127.436 151.96 127.28C151.311 126.835 150.416 125.962 150.339 126.756C150.15 125.439 148.474 125.623 148.523 124.596C147.692 124.328 147.606 124.984 147.179 125.231C147.241 124.66 146.373 124.698 146.103 124.355C146.638 124.046 146.043 123.57 145.827 123.196C145.657 123.828 144.262 122.46 144.832 123.2C145.104 123.364 145.323 123.558 145.488 123.783C144.741 123.538 144.502 123.926 143.962 123.917C143.77 124.634 144.948 124.452 144.435 125.355C144.036 125.157 143.477 125.053 143.303 124.69C143.896 124.668 142.773 124.141 142.97 123.741C141.91 123.819 141.778 123.467 140.564 123.278C140.313 124.386 141.607 123.602 142.635 124.149C142.332 125.786 144.339 126.052 144.517 127.411C145.343 127.361 145.378 126.556 145.987 127.488C146.077 127.151 146.137 126.76 146.185 126.411C145.437 126.166 145.54 126.962 144.7 126.556C144.42 126.255 143.849 126.192 143.836 125.736C144.502 125.779 144.738 125.571 145.837 125.685C145.592 126.433 146.972 126.17 146.856 126.772C146.841 125.14 144.972 125.543 144.372 124.072C145.527 124.652 147.137 125.219 148.048 127.046C148.492 127.074 147.969 126.663 148.371 126.68C148.315 126.891 148.725 127.046 148.835 126.805C148.337 126.807 147.706 125.96 148.235 126.011C148.799 126.433 149.684 126.671 149.981 127.247C149.891 127.585 149.438 127.418 149.14 127.519C148.845 127.44 148.592 127.373 148.297 127.294C147.623 127.113 146.756 127.649 145.913 128.101C145.396 128.008 144.921 127.926 144.423 127.928C144.344 128.223 144.214 128.37 144.085 128.516C144.422 128.606 144.515 128.766 144.596 128.969C144.585 129.011 144.478 129.073 144.466 129.115C144.455 129.157 144.475 129.253 144.494 129.349C143.43 128.431 143.58 127.702 143.233 126.298C142.339 126.601 143.187 127.145 142.782 127.308C142.55 126.658 141.7 127.47 141.256 127.441C140.604 127.176 140.079 126.945 139.542 126.756C139.748 126.495 139.9 126.264 139.925 126C140.005 125.027 139.844 123.943 138.481 123.804C137.815 123.761 136.811 123.628 136.595 123.932C136.366 124.277 136.503 124.947 136.873 125.589C136.738 126.095 135.817 125.486 135.816 126.164C137.086 126.143 136.102 126.105 135.941 126.876C136.565 126.908 137.127 126.832 137.709 126.852C137.844 127.024 137.99 127.154 138.105 127.23C138.206 127.528 138.264 127.815 138.43 128.04C138.768 127.453 138.685 128.606 139.354 128.469C139.639 127.912 139.11 127.861 139.3 127.324C139.552 127.392 139.598 127.223 139.831 127.195C139.864 127.746 139.95 128.267 140.583 128.436C140.726 128.068 140.339 127.828 140.71 127.792C140.777 128.217 142.891 127.744 141.785 128.668C142.207 128.781 143.002 128.678 142.653 129.307C143.432 128.928 143.886 130.271 144.533 129.54C144.584 129.689 144.687 129.807 144.76 129.872C146.536 130.664 148.655 131.187 150.377 132.01C150.247 132.156 150.148 132.356 150.218 132.6C150.556 132.691 150.792 132.483 150.902 132.241C151.489 132.579 152.023 132.948 152.449 133.379C152.407 133.368 152.354 133.398 152.247 133.46C152.848 133.576 153.376 134.305 153.836 134.609C154.212 134.891 154.577 135.215 154.965 135.454C153.208 135.436 152.392 134.268 150.329 134.212C149.816 135.114 148.917 134.422 148.857 135.49C148.734 134.599 148.058 133.92 149.182 133.769C148.415 133.428 147.358 134.004 147.838 134.404C148.22 134.325 147.227 134.828 148.438 135.197C148.042 135.498 147.521 135.585 146.897 135.553C146.535 135.049 147.126 135.207 147.096 134.476C146.18 134.185 146.402 134.2 145.418 134.162C144.791 134.311 145.762 135.068 144.967 135.171C144.574 134.614 144.117 134.13 143.487 133.78C142.061 134.89 140.241 133.589 138.659 133.255C138.879 132.772 138.537 131.686 138.115 132.25C138.426 132.605 138.609 133.106 138.588 133.688C137.782 133.156 137.704 132.773 136.714 133.096C136.966 131.988 135.511 132.864 135.178 131.916C135.015 132.188 135.275 133.072 134.769 132.936C134.6 132.891 134.474 132.857 134.305 132.812C134.382 132.019 134.925 131.848 135.106 131.173C134.247 130.671 134.857 132.101 134.029 131.653C133.744 132.209 134.272 132.261 134.083 132.798C133.064 132.389 131.711 132.885 130.81 131.695C130.416 132.493 129.759 131.91 129.269 132.05C128.924 131.822 129.552 130.996 128.725 131.046C128.708 131.448 128.39 131.453 128.331 131.844C128.626 131.923 128.879 131.991 128.735 132.359C127.696 133.708 125.637 132.117 124.384 131.736C124.089 131.657 121.899 132.245 123.042 131.014C122.384 131.109 121.411 131.03 121.713 130.071C122.197 130.291 122.306 130.727 123.056 130.792C123.183 130.148 123.807 130.18 123.996 129.643C122.886 129.571 124.45 129.131 123.382 129.071C122.631 129.006 123.827 130.276 122.916 130.303C122.635 130.001 122.065 129.939 122.052 129.483C122.411 129.489 122.387 129.076 122.654 128.921C122.213 128.713 121.05 127.994 120.78 128.329C120.858 128.711 121.898 128.538 121.912 128.994C121.852 129.385 121.069 130.622 121.588 129.359C120.703 129.122 121.134 130.548 119.991 129.926C119.966 129.512 120.432 129.456 120.118 129.282C119.359 129.078 120.097 129.864 119.248 129.998C118.726 129.587 118.805 129.292 118.704 128.993C117.734 129.411 115.96 127.941 116.885 129.546C116.486 129.348 115.916 129.286 115.753 128.881C116.484 128.85 116.096 128.611 116.148 128.082C114.785 127.943 114.063 127.433 113.127 127.047C112.697 127.474 113.598 127.987 112.986 127.913C113.048 127.342 112.516 128.149 112.047 127.707C112.042 127.389 112.262 126.905 111.978 126.784C110.986 126.609 109.735 126.726 109.686 125.899C110.057 125.862 110.863 126.395 110.903 125.908C110.049 125.047 109.174 126.123 108.497 125.445C108.418 125.74 108.392 126.004 108.355 126.311C107.386 126.051 106.401 126.691 106.552 125.285C107.451 125.978 108.579 124.969 108.277 124.075C107.603 123.894 106.703 123.879 106.403 123.482C105.765 123.673 106.708 124.197 106.008 124.28C105.244 123.759 102.894 124.44 101.922 123.683C102.062 124.172 103.122 124.095 102.941 124.77C101.124 125.142 99.4826 123.346 98.2541 123.378C98.577 123.691 99.167 123.849 99.3295 124.254C98.1433 124.298 97.2591 123.383 95.5814 123.069C95.2864 122.99 95.3111 123.403 95.0356 123.42C94.024 123.149 92.9465 121.775 92.7593 120.956C92.2177 122.303 93.5696 122.485 94.097 123.214C92.7699 123.446 92.6423 122.236 91.4807 122.693C91.6011 123.087 92.6527 122.872 92.292 123.544C94.3551 123.599 96.5477 123.509 97.7178 125.043C96.2065 124.276 97.1246 125.065 96.1769 125.398C95.4604 125.206 94.4837 124.131 94.163 124.316C94.3316 124.361 94.4128 124.564 94.3028 124.806C93.4506 125.12 92.3506 123.831 92.3722 124.424C92.7937 124.537 92.9706 124.72 93.0292 125.007C90.8057 125.044 89.8629 123.842 88.4115 124.538C88.5315 123.079 84.7272 123.958 84.8473 122.498C87.2107 122.951 88.3877 123.447 90.0798 123.539C89.7939 122.919 90.9093 123.309 91.4099 123.126C90.3632 121.806 88.2848 122.651 87.0451 122.725C87.1129 122.472 86.7757 122.382 86.9196 122.014C87.7821 122.335 88.002 121.852 88.8645 122.173C88.702 121.768 89.0854 121.012 88.3349 120.946C88.2332 121.326 88.5057 121.489 88.404 121.869C87.7717 121.7 87.1169 121.614 86.5155 121.499C86.2984 119.949 86.8772 120.149 87.2501 118.757C87.5451 118.836 87.5195 119.1 87.9214 119.118C88.0753 117.531 89.5341 117.651 90.5158 117.191C89.8197 116.417 89.4889 117.82 88.3036 117.186C88.3714 116.933 88.8185 116.781 88.431 116.542C88.4187 117.262 87.2477 116.405 87.3085 117.19C87.9211 117.264 88.2666 117.492 88.4404 117.855C88.1454 117.776 88.1701 118.19 87.8946 118.206C87.1215 118.225 87.215 117.708 86.7627 117.541C86.7175 117.71 86.6497 117.963 86.4389 117.907C86.1707 118.739 87.3188 117.826 86.9828 118.911C85.6939 120.013 86.1918 121.864 84.1665 120.824C83.8168 119.6 82.7426 119.9 81.3682 119.803C81.4473 119.508 81.5768 119.361 81.7063 119.215C81.2119 119.038 79.2709 118.02 79.0336 118.906C78.9936 119.393 79.6606 118.758 80.2363 119.138C79.8869 119.768 80.9693 119.606 80.7803 120.143C78.6667 119.938 78.4734 119.479 78.3766 118.323C76.151 117.862 75.1599 117.009 72.0831 116.185C71.6524 116.612 72.554 117.125 71.9413 117.051C71.2309 116.499 70.8846 116.949 69.8 116.613C70.1433 116.343 70.1577 116.121 69.6745 115.901C68.7545 116.468 68.6752 114.91 68.148 116.034C67.5692 115.834 67.6009 115.21 67.4076 114.751C67.1178 114.99 67.0244 115.507 66.7345 115.746C67.6587 116.175 68.6528 116.848 68.4103 117.416C68.9417 117.287 70.5721 117.272 70.8302 117.657C70.3348 118.158 68.6232 117.97 67.4039 117.463C67.3361 117.716 67.2991 118.022 67.2735 118.287C66.5117 118.263 66.375 117.594 66.0564 118.277C66.8223 119.296 68.0227 117.176 69.4713 118.514C68.2295 118.091 69.1558 119.017 68.6017 119.23C70.0491 119.392 72.8138 122.393 69.883 121.698C69.6065 122.393 70.1432 122.582 70.6798 122.771C70.6581 122.177 70.8832 122.011 71.4928 122.265C71.6788 121.908 71.4412 120.94 71.9583 121.034C72.5566 121.33 73.3123 121.713 73.9033 121.193C77.5858 123.129 82.4481 123.528 86.5756 124.815C85.5918 124.777 85.5918 124.777 84.645 124.433C84.4437 125.69 83.318 124.665 83.1041 124.789C83.7333 125.138 82.3197 124.85 82.9767 125.433C81.0965 125.2 79.6809 124.414 78.3447 125.186C80.2218 125.599 77.3508 126.366 78.607 126.567C79.7581 125.474 81.3033 126.115 82.4825 127.109C82.5503 126.856 82.5564 126.496 82.8206 126.521C83.4293 127.453 81.7207 127.085 81.2088 127.31C82.0261 127.8 82.7592 128.268 83.6834 128.696C83.4244 128.988 83.2076 129.292 82.6175 129.134C81.7776 128.728 82.0982 128.543 80.9962 128.609C81.0754 128.314 81.2049 128.168 81.3344 128.022C80.66 127.841 80.5244 128.347 79.8079 128.155C79.8983 127.818 79.9579 127.427 80.0061 127.078C79.2322 127.775 78.1384 127.979 76.8678 128C78.3061 128.702 79.6664 130.875 81.1456 130.412C81.1817 130.784 81.6073 131.892 81.0872 131.979C80.1886 131.286 80.2565 131.033 79.0024 131.33C79.0702 131.077 79.3765 131.114 79.3405 130.742C77.4099 130.361 78.7975 129.06 76.7405 128.644C76.2594 128.922 75.986 129.437 75.3395 129.489C75.9069 129.732 75.206 130.493 74.9304 130.51C74.5798 129.964 74.181 129.767 74.399 130.639C73.5539 129.915 71.6172 129.893 71.2532 128.892C71.3466 128.374 71.76 128.349 71.7187 127.66C73.0684 127.344 75.1923 128.184 76.7548 128.422C76.8144 128.031 76.7249 127.691 76.4216 127.474C76.3816 127.96 76.1143 128.115 75.6086 127.979C75.48 127.447 75.5026 127.363 75.8068 126.902C75.1941 126.828 74.6349 126.724 74.675 126.237C74.97 126.316 75.3072 126.407 75.6248 126.401C75.9074 125.347 74.1433 124.512 73.4741 124.65C73.7886 124.824 73.985 125.103 74.0745 125.443C73.7147 125.437 73.5934 125.721 73.2758 125.727C72.3824 125.352 73.1307 124.919 72.7462 124.5C72.1665 124.977 72.6177 123.968 72.3422 123.985C72.0831 124.277 71.8663 124.58 71.2649 124.465C71.2597 124.147 71.4797 123.663 71.196 123.542C68.656 124.76 67.7046 121.567 64.7041 122.481C64.7246 121.898 64.0502 121.718 63.6853 121.394C63.597 122.229 64.0545 122.713 64.0309 123.476C65.0764 123.62 67.3246 123.996 67.7082 125.094C67.1798 125.043 66.1283 125.258 65.8342 124.501C65.7438 124.839 65.7993 125.306 65.4395 125.3C62.9054 124.304 59.1976 124.486 57.1446 123.213C57.6503 123.348 57.0223 124.174 57.4212 124.372C58.4593 123.701 59.5943 124.185 60.2451 125.128C61.9238 124.764 64.4805 125.676 66.0656 125.829C65.9178 127.055 68.0334 127.758 67.5432 128.576C68.1528 128.83 69.4994 128.693 69.628 129.225C68.9731 129.14 68.8458 129.784 68.2835 129.859C68.8284 130.186 69.2242 130.563 70.1011 130.663C69.9542 131.211 69.5409 131.236 70.1701 131.585C72.1541 131.936 74.501 132.113 76.1963 133.878C75.6578 135.045 74.0993 133.949 73.1855 134.156C74.0223 134.742 72.0475 133.851 72.1648 134.425C72.797 134.595 72.5 135.871 71.8956 135.935C71.4237 135.673 71.1348 135.234 71.4226 134.498C70.8099 134.424 70.1663 134.297 70.0924 134.91C71.5234 134.796 70.1357 136.097 70.622 136.137C70.8275 135.875 71.1061 135.679 71.435 135.631C71.2759 136.9 72.6995 135.97 73.1692 135.734C73.7697 136.528 76.6633 135.676 77.5887 137.28C76.8352 137.395 76.2308 137.459 75.6438 137.121C75.2378 137.961 74.4813 138.256 73.444 138.249C73.04 137.734 73.6414 137.85 73.8387 137.451C73.1304 137.396 71.9905 138.447 71.6409 137.223C72.0623 137.336 73.1591 136.952 72.7068 136.786C71.3036 137.133 69.804 138.178 68.5478 137.977C68.4461 138.356 68.4626 138.632 68.6168 138.899C66.3851 138.799 63.8543 139.477 63.1057 138.056C62.3018 138.021 60.9479 137.342 60.433 137.746C61.242 138.099 61.055 139.134 61.6481 139.112C60.799 139.246 60.1155 139.605 59.505 140.029C59.3795 139.318 57.8416 139.493 57.491 138.947C57.4272 138.342 58.6065 139.337 58.5118 138.678C56.322 136.735 51.7454 136.956 49.5217 135.139C50.1548 134.631 51.5048 136.168 51.9981 135.17C51.1952 134.457 49.9246 134.479 48.7957 133.634C48.7884 132.818 49.3508 132.743 50.1403 132.999C49.8855 134.287 53.2305 134.279 51.8851 135.592C53.1279 135.337 54.4909 135.476 55.1726 136.473C55.6701 136.47 55.5251 135.663 56.2499 135.993C56.2212 136.437 55.8419 136.335 55.6476 136.555C57.099 135.859 61.3776 137.593 63.231 136.914C63.2136 137.316 63.2609 137.645 63.5642 137.862C63.8262 137.39 64.4502 137.421 64.701 136.991C63.7789 137.061 64.0019 136.397 63.6256 136.115C63.5044 136.399 62.2729 136.612 62.1556 136.038C62.1534 135.54 62.9091 135.923 62.9686 135.533C62.8 135.487 62.505 135.408 62.5502 135.24C62.7301 135.243 63.0138 135.364 63.0817 135.111C62.0279 134.828 60.4214 135.935 59.934 134.719C60.7739 135.125 60.5589 134.073 61.0677 134.029C62.0927 134.755 64.0047 134.364 64.4827 134.266C62.9284 134.166 63.4699 132.819 62.6105 132.317C63.5552 132.164 62.9693 133.001 63.7424 132.982C64.1544 131.782 63.5397 131.21 62.9361 130.596C63.5458 130.85 63.4819 130.245 63.7491 130.091C63.196 129.626 61.7877 129.656 62.7447 128.782C62.0281 128.59 60.8419 128.634 60.9271 127.978C61.4729 127.627 62.9194 128.467 62.9994 127.494C58.345 129.185 57.8137 123.075 53.4891 124.041C53.9711 123.086 53.1364 122.998 52.7519 122.578C53.3038 121.867 54.01 121.423 54.7696 120.949C55.1315 121.453 55.3597 121.107 55.9724 121.181C56.5564 121.699 55.7463 122.024 56.5163 122.185C56.618 121.806 56.6016 121.53 56.4473 121.263C57.5575 121.334 57.8577 121.731 59.4676 122.298C60.0082 121.629 60.6404 121.799 60.4645 120.938C58.7612 120.888 58.2903 119.948 56.5747 120.619C57.2469 120.302 56.2659 118.23 55.5702 119.31C55.9073 119.4 56.447 119.409 56.4943 119.738C56.4039 120.076 56.4595 120.543 56.0998 120.537C55.1756 120.108 54.3368 120.878 54.4929 119.79C54.7623 120.133 55.3215 120.238 55.4993 119.743C54.6563 119.517 55.6011 119.363 54.8989 118.949C54.1927 119.393 52.293 119.065 51.8077 118.347C51.8642 118.136 51.9207 117.925 51.935 117.703C52.9292 118.376 53.8901 116.644 53.2087 117.502C51.5627 116.563 50.3798 118.281 49.9995 118.857C49.3334 118.814 49.9079 118.019 49.4556 117.852C49.1957 118.822 47.9929 118.59 47.2559 118.981C47.6691 118.956 47.9067 119.924 47.3249 119.903C45.9401 119.171 42.9467 119.047 41.97 117.971C42.2403 117.637 42.8785 117.446 42.1116 117.105C41.7274 118.539 40.1676 116.268 39.4389 116.796C39.1203 117.479 40.3518 117.266 39.9685 118.023C38.8222 117.58 38.9385 118.832 38.0925 118.786C37.2731 117.798 34.1367 117.364 33.1273 117.591C33.3987 118.432 34.4821 117.592 34.6776 118.549C34.1852 118.869 34.1586 119.811 33.6663 120.131C33.3126 119.765 31.9659 119.902 31.454 120.126C32.3052 120.49 32.552 120.918 31.5231 121.049C33.4249 121.875 34.7047 121.314 36.7556 122.089C36.8573 121.71 37.032 121.395 37.4144 121.316C37.4926 121.699 38.5328 121.526 38.5463 121.981C38.3428 122.741 37.065 121.946 36.9346 122.77C37.575 123.077 39.9003 122.661 39.4799 123.723C39.8593 123.825 40.292 123.896 40.6827 123.955C40.8675 122.423 43.8283 123.849 42.7531 124.827C43.8151 125.247 45.6675 125.246 45.4354 126.449C44.0619 125.675 42.8787 125.538 41.5598 125.908C42.0121 126.075 41.8652 126.623 42.6917 126.573C42.6279 125.968 43.2683 126.276 43.5047 126.068C43.4956 126.608 44.5245 126.477 44.5801 126.944C44.2728 127.585 44.8321 127.689 44.8568 128.103C43.6223 128.495 42.5613 127.397 41.5836 127C41.3155 127.832 42.9519 127.457 42.8553 128.154C42.7649 128.492 42.178 128.153 42.0567 128.437C42.2274 128.98 43.7991 128.678 43.8743 129.241C43.2472 129.389 42.2469 129.076 42.0548 129.793C41.2684 129.356 40.6844 128.838 40.1118 128.278C40.4676 129.142 38.7559 128.954 38.3017 130.144C39.5814 129.582 41.4348 128.904 42.1772 130.685C43.4057 130.652 45.3055 130.981 45.9254 131.87C45.2676 131.965 44.6714 132.167 44.3137 132.659C44.6243 133.691 46.3181 132.427 46.9299 133.179C46.6349 133.1 46.3594 133.116 46.3841 133.53C47.0585 133.711 47.2671 133.269 47.6721 133.107C48.1131 133.315 48.6766 134.415 47.8779 134.699C45.097 133.276 42.3 133.43 39.5704 131.478C41.5185 131.458 43.219 133.541 44.3958 132.183C43.1726 132.534 42.9833 131.217 42.198 131.956C41.2656 131.39 41.2613 130.394 40.1984 130.652C41.067 130.613 40.3465 131.279 40.071 131.296C39.3688 130.882 39.4531 130.904 38.4642 130.549C38.0747 131.665 36.0917 130.636 35.7752 131.818C38.3286 131.055 40.4959 133.082 42.2199 134.403C42.9539 134.193 41.9823 133.435 42.671 133.394C42.9856 133.569 43.182 133.847 43.2715 134.188C42.3876 135.126 43.2675 135.046 43.6172 136.27C42.1976 136.341 43.0229 135.116 42.1378 134.879C41.5025 134.889 40.4108 135.591 40.1219 135.152C40.201 134.857 40.5578 135.043 40.6677 134.801C40.3532 134.626 40.1033 134.379 39.7887 134.204C39.7487 134.69 39.574 135.005 39.1721 134.988C39.2017 133.866 38.8346 133.044 37.6236 132.674C37.4797 133.043 37.8673 133.282 37.4963 133.318C36.7663 132.671 35.3949 132.394 34.8253 131.653C34.2539 132.269 33.7603 131.413 32.8239 131.705C33.0838 130.735 30.66 131.351 30.8243 130.4C30.7791 130.569 30.5879 130.608 30.2929 130.529C29.5705 132.551 33.3184 131.883 33.7719 133.225C32.4345 132.821 32.7932 133.505 33.4337 133.812C31.347 134.519 29.9095 131.286 29.4749 132.571C28.8848 132.412 27.5657 130.929 27.6717 131.545C28.6884 132.134 27.8372 131.77 27.7263 132.69C27.8662 133.179 29.3063 132.525 29.6004 133.282C29.5213 133.578 27.8466 133.084 28.5796 133.551C29.6477 133.611 29.5491 133.811 30.3282 133.432C30.6511 133.745 30.5463 134.304 30.8578 134.659C31.2823 134.592 31.0026 133.613 31.7274 133.943C31.6341 136.314 34.9688 135.67 36.0884 137.055C32.6169 137.029 29.6336 135.687 27.2476 135.319C27.5006 135.387 27.4944 135.747 27.1346 135.741C26.8817 135.673 26.671 135.617 26.4068 135.591C26.5424 135.085 26.5373 134.767 26.3522 134.446C25.3201 134.757 25.4115 133.742 24.549 133.421C22.6626 133.548 18.1671 132.117 16.7854 131.205C15.6474 130.9 11.4543 130.364 10.5627 128.633C10.4723 128.971 10.4858 129.426 10.1682 129.432C9.01364 128.851 5.60876 127.396 5.59745 127.438C5.39188 127.7 5.59342 128.296 5.2028 128.237C4.78438 127.944 4.81621 127.319 4.46255 126.953C2.99372 128.052 1.90372 125.545 0.168593 126.119C0.234514 127.222 1.15449 126.655 1.10715 126.326C1.50602 126.523 2.07649 126.585 2.239 126.991C1.22744 126.72 2.14864 127.328 2.11168 127.635C1.7067 127.797 1.44248 127.772 1.17313 127.428C0.858813 129.107 3.65987 128.095 4.71358 128.377C5.8629 128.64 5.01189 130.13 6.33288 130.257C6.4459 129.836 6.09737 129.788 5.98527 129.531C7.08724 129.465 8.52949 129.309 9.06215 130.356C8.21615 130.31 8.6983 131.208 9.39529 131.304C9.95238 130.911 10.264 131.266 11.2004 130.974C10.3812 131.84 12.6108 131.442 11.4627 132.355C12.7076 132.599 12.0115 131.824 12.8072 131.721C13.2556 132.745 12.8524 131.552 13.8136 131.674C13.8692 132.141 14.4284 132.246 13.8826 132.597C15.1666 133.031 16.0639 132.548 16.9738 133.199C17.2637 132.96 17.4918 132.615 17.8434 132.483C18.7563 132.953 19.6692 133.424 21.1166 133.586C20.6871 135.189 24.2645 135.831 25.1396 137.286C25.2074 137.033 25.2134 136.673 25.4776 136.698C26.1099 136.868 25.74 138.08 26.5531 137.574C26.8717 136.891 25.6401 137.104 26.0235 136.347C27.3249 136.38 29.6132 136.269 30.8376 137.095C30.0933 136.669 29.3471 137.6 29.7151 137.743C30.3647 137.511 30.8376 137.095 31.7874 137.259C31.4975 137.498 31.4041 138.015 31.1142 138.254C32.3222 138.804 33.7983 138.521 34.6804 138.938C34.6126 139.191 34.3371 139.208 34.1346 139.289C32.4117 139.144 29.9402 137.578 28.8456 138.46C30.6024 138.478 32.5342 140.036 34.7494 139.861C34.433 141.042 38.0152 140.148 38.3701 141.69C41.0243 141.226 45.2073 142.979 46.805 144.266C46.6251 144.263 46.4956 144.41 46.4812 144.632C47.0826 144.748 47.6336 144.715 48.0077 144.498C47.7127 144.419 47.4599 144.352 47.6037 143.983C49.2701 144.339 49.6659 144.717 50.6805 144.808C50.5058 145.122 50.2385 145.277 50.0638 145.592C51.5564 145.585 51.3808 146.578 52.8734 146.571C52.863 145.935 52.2195 145.808 53.0717 145.494C52.9135 146.084 53.6639 146.15 53.8798 146.524C54.3917 146.299 53.6423 145.556 54.553 145.529C56.0591 145.978 56.1156 145.767 57.7007 145.92C57.4325 146.752 58.9951 146.99 58.1594 147.58C59.5924 147.964 59.8361 148.572 60.8322 147.889C60.3563 148.485 61.1654 148.838 60.3102 149.332C60.7738 149.456 60.8838 149.214 61.3053 149.327C61.3031 148.829 60.9669 148.061 61.7708 148.096C64.2627 149.08 67.3386 150.582 69.3523 149.811C69.2927 150.202 69.1715 150.486 68.9577 150.609C69.337 150.711 69.7698 150.782 70.1604 150.841C70.1387 150.247 70.3638 150.082 70.9735 150.336C70.219 151.128 71.4197 150.862 71.2358 151.717C70.0547 152.078 69.3113 150.975 68.0191 150.403C67.2164 151.544 64.23 150.382 63.9472 149.583C64.6505 151.173 68.1097 151.919 69.2456 151.726C70.5965 152.585 71.6914 153.557 73.5233 154.138C73.4595 153.533 74.1 153.841 74.3364 153.633C74.6437 152.992 74.031 152.918 74.3383 152.277C73.4788 151.775 73.7894 152.808 73.0646 152.478C73.5888 151.534 72.1774 151.743 72.6059 150.818C73.7101 151.25 75.097 152.48 75.6971 151.42C76.0764 151.522 76.5093 151.593 76.8999 151.652C76.61 151.891 76.5166 152.409 76.2267 152.647C77.5754 153.009 76.2255 151.472 77.6277 151.802C78.0009 152.264 77.9496 152.792 78.5632 152.188C79.1411 153.067 77.8253 153.256 78.2941 153.699C78.3846 153.361 80.02 153.664 79.9718 154.012C79.9318 154.499 79.757 154.814 79.3551 154.797C79.944 153.779 77.919 154.593 77.2138 154.358C76.9979 153.984 77.0605 153.413 76.6842 153.132C76.4129 154.144 75.3324 152.95 75.0065 152.818C74.9398 154.246 76.3791 154.27 76.9353 154.555C76.7966 155.241 76.0779 154.551 75.5907 155.189C76.6279 155.196 77.7248 154.812 77.9398 155.864C78.1288 155.327 79.5609 156.389 79.2843 155.23C78.6355 154.785 77.9654 155.6 77.8707 154.941C78.9849 154.155 79.3881 155.348 80.1632 155.827C80.6083 155.178 79.4385 155.497 79.8301 154.879C80.083 154.946 80.1281 154.778 80.3615 154.75C81.6599 154.962 81.7463 155.483 82.5688 156.291C83.2884 156.303 82.2685 155.894 82.4433 155.579C82.7804 155.669 82.9829 155.588 83.1855 155.506C83.5196 155.777 83.8763 155.963 83.7294 156.511C83.7089 157.093 82.7877 156.485 82.8598 157.227C83.8014 157.254 84.1191 157.248 84.7339 157.82C85.254 157.733 85.3197 156.982 86.0784 157.186C86.542 157.31 86.4372 157.87 86.9009 157.994C87.3285 157.747 88.8097 157.782 89.77 158.582C90.0938 158.216 90.6869 158.195 91.1145 157.947C89.9682 157.505 89.369 157.887 89.044 157.076C89.3309 157.017 89.6176 156.959 89.8427 156.793C89.2527 156.635 89.0245 156.981 88.5691 156.994C89.0881 155.732 87.1166 156.515 87.0188 156.036C87.1401 155.752 87.4269 155.694 87.4134 155.238C85.9373 155.52 83.7703 155.347 83.1904 153.971C83.1998 155.284 80.6327 153.737 81.8621 153.027C80.6172 152.784 81.3132 153.558 80.5176 153.661C80.4928 153.248 80.1053 153.008 80.2409 152.502C82.6339 151.832 83.8101 153.007 85.5959 154.434C87.2519 154.155 87.729 154.735 88.7579 154.604C88.7014 154.814 88.6449 155.025 88.6306 155.248C88.8731 154.68 91.2921 155.599 90.7029 154.763C90.0924 155.187 88.6541 154.485 88.6324 153.892C90.1754 154.034 90.8519 154.713 92.3836 154.897C91.8965 155.535 92.3097 155.51 92.6604 156.056C92.8195 154.788 94.342 155.512 93.8774 156.066C95.9797 156.313 98.1561 157.8 100.773 157.642C101.064 158.579 102.455 158.952 103.319 158.596C103.24 158.891 103.11 159.037 102.981 159.183C103.987 159.136 104.116 159.668 104.309 160.127C105.363 159.731 103.532 159.15 104.254 158.982C104.841 159.32 105.642 159.535 105.79 160.162C107.434 160.602 111.189 160.75 112.407 161.935C114.002 161.548 122.039 163.25 118.715 163.851C120.337 164.376 122.431 164.485 123.473 164.81C122.29 164.673 123.914 165.018 123.331 165.676C124.062 165.646 124.222 165.553 124.477 166.119C124.749 165.106 126.011 166.801 126.69 166.124C126.563 166.09 126.44 165.876 126.746 165.913C126.768 166.506 126.821 166.475 127.008 167.294C126.302 167.738 126.205 167.259 125.26 167.413C125.574 168.266 124.941 168.096 124.53 168.619C127.7 168.926 127.158 169.097 129.692 170.093C129.98 169.356 128.599 169.619 128.673 169.006C129.052 169.107 129.485 169.178 129.876 169.238C129.893 168.835 129.857 168.464 129.543 168.289C129.466 169.083 128.807 168.002 128.465 168.769C128.131 168.499 127.572 168.394 127.921 167.765C128.365 167.793 129.068 168.207 128.931 167.538C128.284 167.591 127.775 167.635 127.532 167.027C128.969 166.553 131.808 168.264 133.827 167.81C134.405 168.688 138.754 169.989 138.849 168.794C139.23 169.393 139.138 169.233 139.378 170.021C138.552 170.071 136.886 169.037 136.691 169.934C137.802 170.005 139.451 170.086 138.242 170.892C138.916 171.072 138.928 170.352 139.572 170.479C139.493 170.775 139.467 171.039 139.43 171.346C138.924 171.21 137.154 170.736 137.946 171.49C138.495 170.959 139.474 171.855 139.82 172.083C140.323 171.721 142.974 172.114 143.036 173.397C142.969 173.65 142.693 173.667 142.491 173.748C141.69 173.533 140.699 172.68 140.349 173.31C140.08 172.966 140.173 172.449 140.548 172.233C139.367 171.917 140.294 172.843 139.678 172.949C139.412 172.426 139.103 171.891 138.532 172.506C138.994 173.309 143.054 174.848 144.629 174.366C145.426 175.439 148.721 174.604 148.597 176.921C149.297 176.838 150.466 177.196 150.611 178.003C151.294 178.322 151.191 177.526 151.885 177.802C153.174 178.555 152.695 179.33 153.095 180.703C153.285 179.488 155.19 180.135 155.782 180.79C155.703 181.086 155.346 180.9 155.236 181.142C155.941 182.054 156.691 180.265 157.167 181.523C157.545 182.303 155.759 181.553 156.565 182.085C157.47 181.74 157.544 182.981 158.257 182.177C158.644 182.416 158.509 182.922 158.801 183.182C159.502 182.42 163.908 183.51 162.953 184.882C167.596 185.086 173.39 188.583 177.428 189.529C177.231 189.928 177.18 190.457 176.559 190.245C176.554 189.928 176.386 189.205 175.623 189.859C176.056 189.93 176.126 190.175 175.971 190.585C175.133 190.677 174.643 189.642 174.082 190.215C174.757 190.395 176.333 191.089 176.881 191.236C177.064 191.059 177.141 190.266 177.821 190.086C177.15 191.579 178.768 190.43 179.093 191.241C178.328 191.398 178.712 192.495 179.162 192.163C178.572 192.005 179.258 191.466 179.5 191.576C180.424 192.004 180.177 194.108 181.119 193.457C181.297 192.962 180.02 193.343 180.519 192.663C180.967 191.833 181.952 193.047 182.604 193.312C183.196 192.114 184.447 191.997 185.685 192.6C184.64 192.456 185.204 192.878 185.012 193.595C186.445 193.979 187.589 193.924 188.704 194.992C188.26 194.963 186.386 194.37 186.97 194.889C188.325 194.89 188.214 195.81 187.499 196.115C188.719 195.945 188.536 196.8 189.697 196.343C189.629 196.596 189.967 196.686 189.823 197.054C189.721 197.434 189.308 197.459 188.813 197.281C189.377 198.382 189.649 198.545 190.418 199.384C190.818 198.903 189.607 198.534 190.349 198.461C191.032 198.78 191.249 198.476 191.631 198.398C191.774 198.707 191.894 199.101 192.136 199.211C192.22 199.234 192.327 199.172 192.423 199.152C192.81 199.392 193.327 199.485 193.566 199.775C192.337 200.486 191.651 198.494 190.893 199.466C191.537 199.593 192.312 200.072 191.898 200.775C191.304 200.797 190.215 200.143 189.953 200.615C191.042 201.269 192.094 201.054 192.047 202.578C192.591 201.729 193.966 203.002 195.043 202.522C195.394 203.068 194.804 202.91 195.112 203.445C195.942 203.215 195.932 204.433 196.259 203.887C195.669 203.729 196.313 203.179 196.597 203.3C196.534 203.871 197.296 203.894 197.939 204.021C197.632 204.662 198.245 204.736 197.938 205.377C200.184 205.256 201.407 206.759 203.208 207.287C203.332 207.5 203.624 207.759 203.873 208.007C203.806 208.26 203.738 208.513 204.044 208.55C204.151 208.489 204.258 208.427 204.323 208.354C204.365 208.365 204.438 208.43 204.48 208.441C204.806 208.574 205.132 208.706 205.511 208.808C206.452 209.512 210.12 209.817 208.586 210.988C209.61 210.539 211.822 210.544 211.41 211.745C212.045 211.734 211.875 211.191 211.954 210.896C212.122 210.941 212.291 210.986 212.448 211.073C213.386 211.958 214.459 212.336 215.555 212.629C216.445 213.184 217.271 213.812 218.009 214.598C219.32 214.09 220.543 213.74 220.58 215.287C218.593 215.116 217.182 214.648 214.918 213.995C214.528 215.112 215.914 215.167 215.738 216.159C210.06 216.446 205.271 216.112 200.923 213.455C195.378 212.738 190.089 210.055 184.524 211.096C181.414 210.398 176.872 209.814 173.391 208.474C174.532 210.453 178.815 209.475 180.285 211.406C180.023 211.879 179.865 212.469 179.541 212.834C180.861 213.64 182.021 214.539 182.432 215.87C185.158 216.148 187.7 217.959 189.142 219.657C189.825 219.975 189.722 219.179 190.416 219.455C190.238 219.95 190.766 220.001 190.47 220.6C191.235 220.443 192.12 220.681 192.288 221.404C193.905 220.933 193.566 222.198 195.171 221.769C195.115 221.98 195.058 222.191 195.044 222.413C196.511 222.671 197.62 223.42 198.721 224.032C197.818 224.875 196.76 225.45 195.311 224.79C195.142 224.745 194.776 225.099 194.509 225.254C194.694 225.575 194.834 226.064 195.129 226.143C198.253 227.297 201.335 228.439 204.482 229.508C207.671 230.589 210.742 231.773 211.714 235.56C212.668 239.251 215.64 240.635 218.981 241.485C220.203 241.813 220.747 242.818 220.526 243.979C220.161 246.187 220.939 246.486 222.815 245.722C224.041 245.192 225.283 243.762 226.684 244.77C228.116 245.832 230.135 247.232 230.218 248.61C230.363 251.271 231.142 252.746 233.674 253.243C236.122 253.718 238.335 254.899 241.147 254.522C243.258 254.229 244.636 257.853 247.467 257.572C247.838 257.536 248.19 257.404 248.511 257.219C248.618 257.157 248.489 256.625 248.312 256.442C247.563 255.699 246.599 255.079 246.064 254.212C245.775 253.773 245.973 252.696 246.319 252.246C246.666 251.797 247.518 251.483 248.153 251.472C248.884 251.442 249.738 251.626 250.261 252.037C253.015 254.402 256.107 256.18 259.462 257.486C259.757 257.565 259.843 258.085 260.028 258.406C259.421 258.65 258.799 259.117 258.228 259.054C256.812 258.946 254.41 257.624 254.17 258.69C253.666 260.906 256.357 260.813 257.84 261.346C266.261 264.145 274.757 266.828 283.166 269.669C285.071 270.315 286.722 269.718 288.535 269.526C291.091 269.261 291.381 272.729 293.691 273.213C295.442 273.591 297.246 273.939 299.031 274.191C299.95 274.302 300.879 273.195 301.807 274.619C303.448 277.093 305.885 277.61 308.621 276.671C310.111 276.166 310.362 277.589 310.985 278.299C313.716 281.426 317.42 278.395 320.327 279.852C323.391 281.397 325.418 285.466 329.904 283.73C330.81 283.385 332.037 284.03 333.074 284.037C335.244 284.03 335.509 287.763 338.504 286.531C340.69 285.625 342.767 287.312 344.852 287.961C352.613 290.357 360.404 292.806 368.142 295.286C370.595 296.079 372.907 297.061 375.632 296.163C377.165 295.67 378.349 296.982 378.948 298.453C379.884 300.693 381.085 302.281 383.788 300.79C387.969 302.046 392.404 300.838 396.613 302.327C408.135 306.364 419.679 310.316 431.39 313.816C434.445 314.725 435.724 318.549 438.631 318.152C441.771 317.728 444.495 318.186 447.251 319.196C450.406 320.403 453.638 318.286 456.922 320.024C460.133 321.698 463.78 322.585 467.44 320.221C468.425 319.58 470.279 320.077 471.64 320.397C474.506 321.165 477.448 321.817 480.094 323.069C482.698 324.309 485.047 323.13 487.45 323.096C487.96 322.374 488.358 321.395 489.425 322.133C489.728 322.35 489.662 323.101 489.673 323.737C494.946 323.613 500.254 322.684 505.489 324.222C506.121 324.392 506.979 324.396 507.513 324.087C508.048 323.778 508.484 322.991 508.612 322.347C508.818 321.408 508.319 320.912 507.585 321.122C506.052 321.616 504.68 322.016 505.071 319.544C505.162 319.207 505.286 318.743 505.132 318.476C504.834 317.899 498.496 313.398 497.785 313.524C496.405 313.787 495.806 313.491 496.168 312.141C496.326 311.55 497.041 310.567 497.432 310.626C500.243 310.927 501.637 310.442 500.093 307.27C499.858 306.8 500.278 305.738 500.708 305.311C502.214 303.906 502.425 305.816 502.933 306.449C503.699 307.468 504.719 307.877 505.72 307.512C507.413 306.926 509.16 306.309 510.174 304.547C511.473 302.228 513.374 303.731 515.043 303.908C518.028 302.04 518.787 302.243 519.315 304.826C519.452 305.496 519.152 306.274 519.343 306.913C519.561 307.785 521.516 308.58 522.034 307.996C522.358 307.631 522.351 306.815 522.169 306.314C521.835 305.366 521.966 304.542 522.609 304.669C526.122 305.384 528.704 302.324 532.065 302.592C534.814 302.786 532.929 300.382 533.359 299.955C535.197 298.322 534.994 296.55 534.733 294.491C534.563 293.27 535.891 292.36 536.891 292.673C542.46 294.482 545.072 292.153 546.442 286.869C547.132 284.296 549.71 283.947 552.466 286.81C554.089 288.511 555.292 288.065 556.895 287.816C557.912 290.259 559.543 289.566 561.127 288.543C563.192 287.243 564.158 288.361 565.412 289.918C566.428 291.184 568.11 290.64 568.876 289.128C569.533 287.857 569.507 286.268 571.004 285.403C573.516 283.952 576.983 282.982 578.259 280.747C580.091 277.621 576.179 274.855 575.534 271.699C575.456 271.316 575.186 270.973 575.277 270.635C575.667 268.841 576.153 267.027 578.063 266.138C579.354 265.534 580.57 264.368 582.109 265.368C582.654 265.695 583.254 266.489 583.203 267.018C583.094 268.435 583.062 269.737 584.37 270.585C583.391 271.544 582.181 272.35 581.516 273.482C581.091 274.227 581.418 275.536 581.762 276.442C581.925 276.847 583.147 277.174 583.701 276.961C587.756 275.652 590.2 272.6 592.114 268.998C592.672 267.927 592.525 266.622 591.634 266.067C589.685 264.912 588.736 264.07 591.386 262.61C592.604 261.942 593.721 260.975 594.816 260.093C595.053 259.885 595.135 259.41 595.13 259.092C595.136 258.732 594.908 258.4 594.777 258.048C591.252 259.907 587.828 256.503 584.354 257.833C584.11 257.903 583.966 258.271 583.802 258.544C583.465 258.453 583.159 258.416 582.875 258.295C579.987 256.934 580.229 257.044 581.184 255.672C583.842 251.818 588.027 250.363 591.915 248.33C593.175 247.674 594.62 247.337 595.156 245.673C596.607 241.27 600.115 239.813 604.385 239.556C605.433 239.521 606.519 239.179 607.447 238.749C608.28 238.339 609.725 238.003 608.819 236.495C608.283 235.628 607.723 234.348 606.88 234.122C605.573 233.772 604.029 234.307 602.635 234.115C599.943 233.71 599.043 231.841 600.43 229.365C601.106 228.19 603.142 227.334 603.192 226.307C603.253 224.56 602.404 222.841 603.134 220.957C603.899 218.947 605.631 216.699 604.531 214.731C603.166 212.241 606.768 211.443 605.717 209.127C604.778 207.067 606.304 205.08 606.763 203.033C606.127 203.043 605.335 202.967 604.98 203.278C603.41 204.756 601.974 206.406 600.476 207.949C600.034 208.418 599.404 208.746 598.847 209.14C598.812 208.09 598.681 207.061 598.826 206.015C598.88 205.306 599.337 204.614 599.518 203.94C600.157 201.217 599.932 200.705 597.384 199.932C595.299 199.283 593.347 198.308 591.04 199.498C589.673 200.217 588.072 201.641 586.363 199.42C585.328 198.058 583.305 197.516 582.109 196.246C581.578 195.697 581.805 194.176 582.065 193.205C583.099 189.685 585.021 186.222 585.251 182.667C585.517 178.805 585.986 174.862 585.112 170.876C584.757 169.334 585.89 167.467 586.395 165.749C587.07 165.93 587.744 166.111 588.419 166.291C590.82 166.995 592.647 166.189 593.9 163.872C595.036 161.826 595.418 161.748 596.616 163.515C597.421 164.725 598.021 166.197 599.085 167.115C599.638 167.58 601.513 167.494 601.978 166.941C603.608 165.072 603.332 161.381 601.833 159.895C599.626 157.676 596.579 157.583 593.843 156.669C592.095 156.11 591.637 158.157 590.557 158.817C588.686 159.898 583.508 158.149 582.751 156.59C582.67 156.388 582.608 156.281 582.535 156.216C582.681 156.345 583.007 156.478 583.429 155.913C584.057 155.087 584.873 154.401 585.544 153.586C585.738 153.367 585.682 152.9 585.635 152.571C585.589 151.564 585.136 151.398 584.155 151.858C582.821 152.45 580.991 153.044 580.394 151.393C579.767 149.688 582.044 149.62 583.02 148.841C583.589 148.406 584.407 148.218 584.872 147.665C585.283 147.142 585.54 146.352 585.456 145.652C585.351 144.358 584.151 143.946 583.095 143.843C582.429 143.801 581.761 144.436 581.05 144.561C578.694 144.925 577.86 144.159 577.976 141.703C577.977 141.025 578.253 140.331 578.381 139.687C577.881 139.191 577.171 138.639 577.261 138.302C578.041 135.392 577.516 132.629 577.206 129.743C576.911 127.132 575.737 128.31 574.394 128.266C572.606 128.194 570.859 127.635 569.077 127.203C567.349 126.74 566.743 125.629 567.387 123.902C568.419 121.06 569.345 118.279 567.106 115.509C565.271 113.254 563.489 110.968 561.6 108.744C561.496 108.626 560.92 108.924 560.537 109.002C557.065 109.654 554.05 108.936 551.771 105.975C549.824 103.464 545.793 103.333 544.812 99.4087C543.959 96.0157 541.945 93.08 537.512 95.4635C533.551 93.724 528.71 93.9188 525.761 89.919C525.13 89.0717 524.015 88.6824 522.819 89.2662C520.887 90.2403 519.167 89.9151 518.087 88.0435C517.285 86.6532 516.331 87.347 515.345 87.4894C511.917 87.9726 509.645 86.5048 508.525 83.2663C507.89 81.4233 506.951 81.217 505.275 82.0788C503.705 82.8789 502.121 83.9011 500.056 83.3477C496.895 82.5007 493.873 80.2896 490.516 81.0175C487.254 81.7258 484.749 80.286 481.979 79.4984C478.798 78.5557 475.575 77.6018 472.394 76.6591C470.973 76.2329 469.414 75.1372 468.16 75.4341C462.295 76.7557 457.397 73.4543 452.114 72.2647C450.67 71.9229 449.027 70.8046 447.888 71.1776C444.758 72.2376 441.945 71.4387 439.288 70.2294C436.094 68.831 432.575 70.3295 429.65 69.2745C425.652 67.8416 421.729 67.6492 417.851 68.4637C413.825 69.3288 410.568 68.5013 407.888 65.5228C406.246 63.7266 404.071 63.415 401.974 62.8081C399.993 62.2773 397.528 64.736 395.921 62.1354C394.283 59.4813 391.955 61.9317 389.991 60.9986C387.345 59.7471 384.391 59.1366 381.559 58.2421C378.39 57.2572 375.046 56.5872 372.043 55.1497C369.124 53.7347 366.243 55.7204 363.425 54.6037C360.681 53.5518 357.795 52.6881 355.005 51.8049C352.552 51.0121 349.789 49.1867 347.652 49.7442C344.1 50.6913 342.648 47.6802 340.097 47.087C334.108 45.6633 328.661 41.7171 322.03 43.1955C317.462 41.7001 312.783 40.4466 308.294 38.6559C305.476 37.5392 303.251 34.5471 299.793 37.5082C298.515 38.5673 296.99 37.345 295.611 36.9301C293.147 36.1794 290.685 35.2487 288.221 34.4981C286.01 33.8151 284.767 30.3627 281.655 32.1962C279.178 30.9899 276.644 31.848 274.122 31.986C273.805 31.9914 273.203 31.8754 273.133 31.6306C271.89 28.1782 267.74 31.3608 266.801 29.3009C265.422 26.3546 262.16 28.9165 260.599 26.1472C259.499 24.18 256.209 23.4791 253.582 24.1768C249.542 25.264 245.765 21.9918 241.766 23.7682C238.813 22.4798 235.525 22.2768 232.934 19.6386C230.332 17.0427 226.648 15.7845 222.912 18.2643C221.156 19.4213 219.451 18.8739 217.661 18.304C212.399 16.5322 207.091 14.9292 201.787 13.1462C199.671 12.4437 198.526 13.1767 197.247 14.9136C196.338 16.1165 194.553 15.8644 193.563 14.3333C192.492 12.5995 191.377 11.5324 189.13 12.3317C188.182 12.6655 186.327 12.8464 186.111 12.4721C183.857 8.07075 179.289 12.1361 176.462 9.70587C175.252 8.65831 173.545 9.46664 172.335 10.2727C170.258 11.615 168.283 11.4021 166.052 10.6235C157.969 7.91508 149.817 5.45976 141.745 2.70917C139.177 1.84025 136.745 2.31872 134.215 2.31898C130.744 2.29295 132.209 3.90611 132.392 5.58268C132.564 7.30142 131.214 8.29576 129.662 8.01573C126.127 7.3849 122.844 4.96827 118.921 6.6294C118.409 6.8539 117.289 5.46891 116.41 4.87173C115.531 4.27454 114.709 3.46646 113.793 3.17582C112.781 2.90478 112.75 3.52916 112.776 4.44051C112.868 7.13237 111.419 8.3263 109.312 7.76162C108.153 4.33175 105.548 7.47651 103.711 6.57739C101.391 5.4584 98.8053 4.99167 96.3103 4.18752C92.0677 2.82467 87.8477 1.37748 83.6133 0.152459C82.7282 -0.0847026 80.957 0.118819 80.7145 0.686741C79.694 2.80931 77.8981 2.59935 76.1495 2.71852C75.9161 2.74641 75.4547 3.12003 75.4629 3.25786C75.5103 3.58699 75.7344 4.09913 75.976 4.20908C80.4685 5.8197 85.1131 7.19983 89.5069 9.01005C91.6616 9.90386 93.8756 8.55318 95.575 9.46061C97.4008 10.4019 98.6039 12.4873 100.198 13.9544C100.959 14.6555 101.976 15.2444 102.965 15.5998C105.763 16.6209 108.595 17.5154 111.374 18.4408C114.521 19.51 117.907 20.1913 120.78 21.7749C122.522 22.6936 123.455 25.1135 126.066 23.4623C126.451 23.2039 127.468 23.7928 128.119 24.0579C128.771 24.3229 129.645 24.6023 129.954 25.137C131.975 28.8884 134.554 27.8615 137.376 26.2668C138.124 25.8344 139.851 25.1217 139.525 26.8428C139.027 29.3765 140.512 31.0853 141.293 33.0578C141.669 34.0174 141.629 34.5039 140.791 34.5959C140.42 34.6321 140.037 34.7105 139.711 34.5779C138.68 34.2112 137.264 34.1029 136.694 33.3626C134.427 30.3591 131.755 29.3719 128.012 30.3582C126.311 30.8065 124.409 29.9805 123.166 28.3816C120.638 25.1725 116.785 24.547 113.28 24.6475C110.59 24.7404 108.226 24.288 105.816 23.5064C100.53 21.8191 95.2681 20.0473 89.9296 18.3908C85.7178 17.0815 81.4526 15.803 77.2182 14.578C76.9232 14.4989 76.5264 14.7995 76.1748 14.9313C76.5254 15.4774 76.7887 16.1808 77.2914 16.4963C78.2352 17.0204 79.4718 17.1258 80.3395 17.7651C81.6986 18.7622 80.7514 22.8031 79.1088 23.5384C78.8529 23.6506 78.746 23.7124 78.6391 23.7742C78.673 23.6476 78.6873 23.4254 78.3758 23.0707C75.9905 20.1712 75.6866 22.4858 75.0125 24.1586C74.9333 24.4539 74.8429 24.7913 74.7638 25.0866C76.6761 26.5483 78.0168 28.6255 80.6917 29.4326C86.6429 31.1628 92.4697 33.357 98.3531 35.3404C44.8526 23.0845 150.837 52.7067 96.7822 43.1955L121.993 51.304C122.886 52.3569 123.607 53.5446 124.057 55.0667L124.448 55.1261ZM97.0723 73.3331C96.9254 73.8815 96.2376 73.2451 96.1337 73.1269C96.3167 72.9499 96.8676 72.9166 96.4575 72.7615C96.7699 72.4384 97.506 72.7261 97.9419 72.6168C98.2442 73.5115 96.4236 72.8881 97.0723 73.3331ZM102.496 76.1879C102.033 76.0637 101.558 75.9817 101.083 75.8996C101.525 75.4303 102.071 75.0793 102.751 74.9C103.529 75.1989 102.747 75.7579 102.496 76.1879ZM105.109 76.8881C105.627 76.3036 104.492 76.4965 103.71 76.3776C103.23 75.9777 104.11 75.8971 103.585 75.6659C103.574 75.0302 104.869 76.1004 104.858 75.4647C105.547 75.4232 105.262 75.9798 105.737 76.0618C106.288 76.0286 105.522 75.6875 106.076 75.4743C106.264 75.6152 106.398 75.7869 106.747 75.8351C106.522 76.0008 106.401 76.2847 106.352 76.6334C107.373 76.3645 106.862 75.9111 108.086 76.7365C107.94 77.2848 107.204 76.9972 106.56 76.8699C106.683 77.0838 106.944 77.2894 107.175 77.4415C106.435 78.0117 106.268 76.6109 105.09 76.7925L105.109 76.8881ZM108.59 78.2277C108.093 78.23 107.981 77.9739 107.655 77.8414C107.723 77.5883 108.133 77.7435 108.397 77.769C108.895 77.7667 108.615 76.7876 109.474 77.2892C109.418 77.5001 109.361 77.711 109.347 77.9331C108.895 77.7667 108.608 77.8255 108.548 78.2164L108.59 78.2277ZM79.2626 95.4595C79.4548 94.7425 79.9318 95.3224 79.6716 94.4389C79.8403 94.4841 79.9667 94.518 80.1353 94.5632C80.0901 94.7319 80.2052 94.808 80.3317 94.8418C79.9267 95.0046 79.8836 95.6711 79.2092 95.4904L79.2626 95.4595ZM82.687 97.01C83.391 96.0685 85.5345 97.0045 86.0876 97.4691C85.3754 98.2728 83.1198 97.0808 82.687 97.01ZM87.1065 98.5559C87.2534 98.0075 87.9895 98.2952 88.633 98.4224C88.7246 99.2607 87.6575 98.5227 87.1065 98.5559ZM99.3698 103.198C99.6689 102.419 100.036 103.241 100.896 103.065C100.988 103.903 99.9208 103.165 99.3698 103.198ZM136.968 126.247C136.968 126.247 137.07 125.867 137.23 125.775C137.323 125.935 137.415 126.096 137.519 126.214C137.339 126.211 137.159 126.208 136.968 126.247ZM71.5302 117.574C72.3649 117.662 72.879 117.935 72.5491 118.66C72.3106 118.37 71.7513 118.266 71.1499 118.15C71.3216 118.015 71.4511 117.869 71.4881 117.562L71.5302 117.574ZM71.5378 120.243C71.5561 119.163 71.2437 119.486 70.266 119.088C70.2526 118.633 70.5507 118.532 70.6607 118.29C71.444 118.907 71.6383 118.688 73.0096 118.965C72.2613 119.397 72.1719 119.057 72.8114 120.042C72.3776 120.649 72.3139 120.044 71.5378 120.243ZM75.6241 120.841C75.1183 120.705 75.2652 120.157 75.0801 119.836C74.3461 120.046 74.1107 119.576 73.1352 119.676C73.0744 118.892 73.6337 118.996 73.9339 119.393C74.2555 118.53 72.4052 119.029 72.9294 118.084C73.8062 118.184 74.0304 118.696 74.7469 118.888C74.6904 119.099 74.2381 118.932 74.2011 119.239C74.8077 119.672 76.4289 120.197 75.6241 120.841ZM75.6259 119.485C74.6934 118.919 75.6812 118.098 73.9501 117.815C74.0909 117.627 74.2204 117.481 74.4959 117.464C75.6452 117.727 75.1797 118.958 76.4246 119.202C76.3455 119.497 75.7163 119.147 75.6259 119.485ZM76.6448 120.572C77.4527 119.748 79.6239 120.918 80.4638 121.324C79.3661 122.386 78.3564 120.759 76.6448 120.572ZM81.3315 121.963C81.5462 121.162 81.132 121.864 80.6602 121.602C81.3364 120.427 81.753 122.076 82.4653 121.272C82.8642 121.47 81.8907 122.068 81.3428 121.921L81.3315 121.963ZM82.5343 122.195C83.0071 121.779 84.292 121.536 84.803 121.989C84.0537 123.099 83.5828 122.159 82.5343 122.195ZM62.9293 133.488C63.7662 134.074 61.8787 133.025 62.6621 133.642C62.2571 133.805 61.5919 133.084 61.0409 133.117C61.1087 132.864 61.5189 133.019 61.7831 133.045C62.0586 133.028 62.0226 132.657 62.3289 132.694C62.6218 132.275 62.1173 133.315 62.9293 133.488ZM62.3759 131.169C62.4437 130.916 62.3934 130.767 62.2361 130.68C63.6814 130.344 61.9474 132.094 61.1701 131.118C61.2102 130.631 62.0161 131.163 62.3872 131.127L62.3759 131.169ZM60.4329 129.654C60.7505 129.649 60.8552 129.089 60.5602 129.01C61.7578 128.924 60.807 129.438 61.3006 130.294C61.0312 129.95 60.1739 129.947 59.958 129.572C60.0258 129.319 60.4894 129.443 60.4216 129.696L60.4329 129.654ZM58.7484 132.232C58.3538 133.03 57.779 131.972 56.8034 132.072C56.8074 131.214 58.5407 131.995 58.7484 132.232ZM57.9353 132.737C58.9407 133.368 58.9295 133.411 59.6677 134.196C59.4334 134.902 58.6191 134.231 58.5214 133.753C57.1512 134.652 55.7982 133.295 54.3786 133.366C54.3743 132.371 53.5696 133.014 53.1069 132.212C54.2263 131.743 56.5456 133.54 57.9466 132.695L57.9353 132.737ZM52.3678 132.104C52.2208 132.653 51.8466 132.869 51.2453 132.753C51.1023 132.443 51.055 132.114 51.1906 131.608C51.7612 131.671 52.0758 131.845 52.3369 132.051L52.3678 132.104ZM44.8571 129.956C45.4111 129.743 46.5739 130.461 46.6038 131.193C46.0455 130.41 44.8582 131.132 44.8571 129.956ZM34.4792 133.957C34.0022 133.377 34.7053 133.113 34.7484 132.447C35.7795 132.813 35.2788 132.995 36.6224 133.039C36.8517 133.869 35.7764 132.993 35.8094 133.545C35.6512 134.135 37.4171 133.614 36.8847 134.42C35.8927 134.245 35.4044 133.707 34.4792 133.957ZM14.7204 132.505C14.9403 132.021 15.7103 132.182 16.2613 132.149C16.1812 133.122 15.2344 132.778 14.7204 132.505ZM23.5736 135.374C24.3837 135.049 24.723 135.637 25.5043 135.756C25.4252 136.051 25.3995 136.316 25.3625 136.622C24.4127 136.458 23.9017 136.005 23.6158 135.386L23.5736 135.374ZM37.6979 133.915C37.9364 134.205 38.4956 134.31 39.097 134.425C38.9049 135.142 37.2015 135.093 37.6979 133.915ZM38.5825 138.537C38.4991 137.837 40.2693 138.311 40.109 138.404C40.2006 139.242 39.1335 138.504 38.5825 138.537ZM42.0615 141.232C42.5374 140.637 43.7957 141.335 44.1464 141.881C43.8608 143.116 42.2857 141.745 42.0615 141.232ZM49.4088 121.23C50.0502 120.86 49.896 120.592 49.9308 119.788C51.2179 120.042 51.2786 120.827 52.1286 120.015C53.0498 120.624 53.6453 122.953 51.9141 122.67C52.4609 121.641 49.891 122.128 49.4396 121.284L49.4088 121.23ZM50.215 123.616C50.2241 123.076 51.3109 123.91 51.0281 123.111C51.2779 123.359 51.5925 123.533 52.1743 123.554C52.2146 124.921 50.5883 124.078 50.1729 123.605L50.215 123.616ZM48.8129 131.378C49.0216 130.937 49.9962 131.514 50.5472 131.481C50.3098 132.367 49.0792 131.901 48.8129 131.378ZM54.1717 138.691C53.0532 138.481 51.9461 138.23 50.8276 138.021C51.1328 136.882 50.3762 137.176 49.4993 137.077C48.9997 136.582 50.8594 137.396 50.116 136.293C50.9364 136.603 51.0619 137.315 51.9336 137.096C51.8771 137.307 51.8206 137.518 51.8062 137.74C52.5875 137.859 53.122 137.551 53.9475 138.179C54.1583 138.235 54.184 137.971 54.2713 137.813C54.9653 138.09 53.9784 138.232 54.1296 138.679L54.1717 138.691ZM55.6417 138.768C55.0785 139.521 55.3332 138.233 54.9847 138.185C55.3116 137.64 56.2697 137.942 57.0006 137.912C57.2577 138.975 54.9036 137.983 55.5996 138.757L55.6417 138.768ZM61.2074 140.757C61.1466 139.972 61.6246 139.874 61.9371 139.551C62.6311 139.827 63.0577 140.258 62.8851 141.071C62.3372 140.924 61.7666 140.861 61.2074 140.757ZM63.3487 141.195C64.1987 140.383 62.6722 140.516 63.1995 139.392C64.4373 140.673 66.3391 141.499 67.8956 142.097C66.3629 142.59 64.7097 140.836 63.3487 141.195ZM70.646 139.082C70.3757 139.416 69.836 139.407 69.1195 139.215C69.2047 138.56 70.4805 138.856 70.646 139.082ZM68.4445 141.566C69.2001 141.949 68.7642 142.058 69.8436 142.076C69.7862 142.965 68.1063 142.153 68.4445 141.566ZM129.791 133.139C129.751 133.626 129.483 133.78 128.978 133.645C130.495 134.051 130.06 133.483 131.918 133.8C131.816 134.179 132.142 134.312 131.987 134.722C130.928 134.122 129.664 134.959 128.628 134.274C128.809 133.6 129.009 133.02 129.833 133.151L129.791 133.139ZM128.321 133.062C128.835 133.335 128.307 134.46 127.647 134.057C127.429 133.185 128.362 133.751 128.321 133.062ZM107.623 139.496C107.554 140.427 106.653 139.914 106.097 139.629C106.005 138.791 107.072 139.529 107.623 139.496ZM103.204 137.95C103.166 138.935 101.981 138.3 101.455 138.069C101.417 137.2 102.641 138.026 103.204 137.95ZM98.7824 137.76C98.3023 137.36 98.8491 136.331 97.8345 136.24C98.0101 135.247 98.9642 136.407 99.248 136.529C99.2892 137.218 98.8646 137.285 98.7824 137.76ZM97.6381 135.962C97.2105 136.209 96.3357 136.607 95.8895 136.081C96.2749 135.822 96.9102 135.812 97.6381 135.962ZM98.0194 128.469C98.3915 127.755 100.538 128.511 100.633 129.169C99.4803 129.086 99.0228 128.602 98.0194 128.469ZM98.0968 137.622C97.1521 137.775 97.738 136.938 96.9649 136.957C96.9545 136.321 98.548 136.612 98.0968 137.622ZM98.3613 125.17C98.7376 125.452 98.7819 125.961 98.6236 126.551C98.7922 126.596 98.9187 126.63 99.0873 126.675C99.4583 126.639 99.0286 126.388 99.2146 126.031C99.667 126.198 99.52 126.746 100.347 126.696C100.279 126.949 99.8377 126.741 99.8008 127.047C99.9294 127.579 100.718 126.66 101.493 127.139C100.314 127.999 98.8951 127.392 98.0778 126.902C98.894 126.217 97.8885 125.586 98.4035 125.181L98.3613 125.17ZM95.7432 126.005C94.746 125.512 94.3914 125.824 93.1269 125.485C93.8022 124.988 95.8406 124.63 95.7432 126.005ZM83.4807 126.924C84.3637 126.663 85.4543 126.639 85.8911 125.852C84.896 125.857 84.4592 126.644 83.1331 126.198C83.3078 125.883 83.575 125.729 83.7498 125.414C84.3316 125.434 84.2073 125.898 84.896 125.857C84.2174 124.68 87.362 125.252 88.0437 126.248C87.6717 126.962 87.3242 126.236 86.5737 126.171C86.214 126.165 86.4042 126.803 85.9714 126.732C85.9314 127.219 86.983 127.003 87.3705 127.243C87.9545 127.761 87.1444 128.087 87.9144 128.248C87.7901 128.712 86.9029 127.977 86.7682 127.805C86.0786 128.524 84.9857 128.051 84.4286 128.444C83.7347 128.167 84.2814 127.139 83.4807 126.924ZM77.658 140.056C76.3154 139.335 75.4354 139.416 74.6377 139.021C75.3313 137.444 77.9301 138.366 79.1298 138.778C79.019 139.698 78.1421 139.598 77.658 140.056ZM79.1988 139.701C79.2779 139.405 79.3037 139.141 79.3406 138.834C80.3357 138.83 79.9945 139.597 80.0922 140.076C79.9267 139.85 79.6007 139.718 79.1567 139.689L79.1988 139.701ZM82.071 132.016C82.1223 131.488 82.3505 131.142 82.7441 131.021C83.9695 131.169 83.245 132.693 82.071 132.016ZM80.4168 153.363C79.9636 153.875 79.1102 153.013 79.3414 152.487C80.3169 152.387 79.8154 153.247 80.4168 153.363ZM89.6212 129.971C88.7372 130.909 86.6585 129.9 86.4572 131.157C85.9462 130.704 85.1681 130.405 84.4433 130.075C84.0321 130.598 82.705 130.83 82.1745 130.281C83.3791 129.157 84.8122 129.541 86.208 128.378C86.8372 128.728 87.5342 128.824 87.8857 128.692C88.1438 129.078 86.6564 129.402 85.8134 129.177C86.5116 130.449 88.846 129.492 89.9562 129.563C89.9974 130.252 89.7723 130.418 90.0108 130.708C89.5771 131.315 89.1123 130.015 89.6633 129.982L89.6212 129.971ZM88.744 128.018C89.3609 129.087 92.6144 128.241 93.0236 129.074C91.6565 129.793 89.7104 128.458 88.6023 128.884C89.0638 128.51 88.6279 128.62 88.744 128.018ZM90.3633 129.898C91.7994 130.102 91.5446 131.39 90.2359 130.542C90.2924 130.331 90.349 130.121 90.3633 129.898ZM89.6958 134.918C89.3843 134.564 90.6035 135.071 91.43 135.021C91.274 136.11 90.1029 135.254 89.6958 134.918ZM92.3064 131.414C91.6824 131.382 91.7243 129.54 92.7719 130.182C92.0997 130.499 92.8183 131.189 92.3064 131.414ZM91.9769 127.754C91.7464 125.748 89.5488 127.375 89.3513 125.92C89.1713 125.917 89.084 126.075 88.8198 126.049C88.8559 126.42 89.5446 126.379 89.153 126.997C87.7704 126.762 88.7929 125.138 87.2099 125.482C89.6338 124.866 92.0621 127.099 94.9044 126.775C94.8479 126.986 95.1656 126.981 95.3651 127.08C94.8049 127.653 94.2569 127.506 94.1604 128.203C93.6207 128.194 93.7646 127.826 93.8129 127.477C93.2393 127.595 92.935 128.056 92.0078 127.807L91.9769 127.754ZM91.4425 136.155C91.6233 135.48 93.076 135.96 92.8417 136.665C92.229 136.592 91.6697 136.487 91.4425 136.155ZM94.9716 129.054C94.8574 128.3 95.7898 128.866 96.2452 128.852C96.0983 129.401 95.3643 129.611 94.9716 129.054ZM96.3085 125.75C96.8534 126.077 96.7682 126.732 97.8588 126.708C97.5085 128.016 95.8913 126.633 96.3085 125.75ZM130.428 151.664C130.349 151.96 130.324 152.224 130.287 152.531C129.345 152.504 129.566 151.343 130.428 151.664ZM130.497 152.587C130.921 153.198 131.355 152.591 132.175 152.901C131.714 153.275 132.149 153.165 132.033 153.767C131.137 153.572 130.39 153.327 130.497 152.587ZM135.803 151.839C135.705 151.36 134.896 151.008 134.404 151.328C134.386 151.73 134.701 151.905 135.283 151.925C134.281 152.29 132.939 151.569 131.407 151.384C131.739 151.157 131.582 151.069 131.534 150.74C131.042 151.06 130.551 150.703 130.388 150.297C129.074 150.985 124.755 148.562 124.774 151.189C122.972 150.661 122.36 150.587 120.352 150.999C120.105 150.571 119.484 150.359 119.333 149.912C118.736 150.792 116.219 150.072 115.039 149.078C114.449 148.92 114.356 149.437 113.962 149.558C111.782 148.928 109.217 147.88 107.194 147.337C107.324 146.513 106.077 145.772 104.719 145.951C103.947 145.292 100.871 143.79 99.501 144.688C98.4976 144.555 99.58 144.393 99.4319 143.766C98.552 143.847 96.5762 143.634 95.8658 143.082C97.199 142.489 94.9743 141.351 94.0501 140.922C95.116 140.485 96.1432 141.709 96.7919 142.154C97.1969 141.992 97.4055 141.55 98.122 141.742C98.0768 141.911 97.8548 141.897 97.7983 142.107C101.45 142.136 104.439 143.118 107.057 144.136C107.822 143.98 109.188 144.617 109.548 143.945C107.616 143.065 104.727 142.382 102.652 142.368C102.824 142.234 102.965 142.045 102.991 141.781C102.943 141.452 100.48 141.877 101.244 140.544C100.127 141.511 99.6196 140.199 98.8478 141.394C97.7601 141.238 96.6304 141.071 96.8482 140.09C97.6099 140.113 97.7158 140.729 98.2616 140.378C97.5368 140.048 97.1862 139.502 96.7822 138.987C96.5262 139.099 96.733 140.014 96.0525 140.193C95.0101 139.869 94.7273 139.069 94.1238 138.456C94.7539 138.127 95.6842 138.196 96.2105 137.749C96.7502 137.758 96.6063 138.126 96.558 138.475C98.1297 138.173 98.0702 138.564 99.9165 138.923C99.8896 138.011 99.4568 137.941 100.242 137.202C101.301 137.802 100.955 138.252 101.594 139.237C100.821 139.256 101.235 138.553 100.462 138.572C100.06 138.555 100.613 139.019 100.139 138.937C101.09 140.277 102.315 138.571 103.483 139.607C103.603 140.001 102.274 139.735 102.544 139.401C101.624 139.968 104.654 140.463 103.003 141.061C103.424 141.174 103.545 140.89 104.009 141.014C103.928 140.811 103.847 140.609 103.884 140.302C104.684 140.517 105.583 141.21 105.885 140.251C106.351 140.873 106.618 140.719 107.506 140.776C107.587 141.656 106.216 140.701 105.965 141.131C106.482 141.903 107.306 141.355 107.769 142.157C108.214 141.508 107.044 141.827 107.435 141.209C108.278 141.435 108.384 142.051 109.239 142.234C109.468 143.064 108.393 142.189 108.426 142.74C108.531 143.356 109.339 142.533 109.572 143.183C110.218 143.13 108.887 142.366 109.77 142.106C110.393 142.815 110.154 143.203 111.573 143.131C111.348 143.297 111.227 143.581 111.179 143.93C111.957 144.229 111.731 143.219 112.312 143.239C114.021 145.46 116.8 144.532 119.01 145.892C119.306 145.294 121.214 145.76 120.828 146.696C121.66 146.286 121.419 146.176 122.633 146.366C123.046 148.195 127.865 147.406 129.345 148.797C129.271 149.41 128.846 149.477 128.546 149.08C128.543 149.26 128.742 149.359 128.686 149.57C129.491 148.927 132.234 148.803 132.772 150.168C134.136 149.629 135.116 150.524 136.591 150.92C136.478 151.341 135.877 151.226 135.721 151.636L135.803 151.839ZM140.24 171.02C140.642 171.038 140.67 171.271 140.644 171.535C141.318 171.716 141.334 170.816 141.861 171.545C141.546 172.048 140.025 171.822 140.24 171.02ZM152.311 135.919C152.39 135.623 152.416 135.359 152.452 135.052C152.916 135.177 153.391 135.259 153.866 135.341C153.623 135.909 153.039 136.068 152.269 135.907L152.311 135.919ZM585.163 270.662C585.467 270.201 585.74 269.687 586.176 269.577C586.868 269.356 587.227 270.04 586.701 270.487C586.357 270.756 585.745 270.682 585.205 270.673C585.182 270.758 585.106 270.873 585.042 270.946L584.887 270.679C584.887 270.679 585.109 270.693 585.205 270.673L585.163 270.662ZM584.285 258.763C584.285 258.763 584.24 258.932 584.271 258.986C584.72 259.332 585.277 259.617 585.397 260.011C585.565 260.734 584.881 261.093 584.446 260.524C584.281 260.299 584.264 260.024 584.259 259.706C584.273 259.484 584.257 259.208 584.271 258.986C584.187 258.963 584.114 258.898 584.083 258.845L584.297 258.721L584.285 258.763ZM579.781 221.119C579.781 221.119 579.173 221.363 578.864 221.506C578.721 221.197 578.37 220.651 578.477 220.589C579.274 219.808 579.81 219.997 579.781 221.119ZM586.457 164.003C586.757 164.4 586.672 165.055 586.651 165.637C586.693 165.648 586.778 165.671 586.797 165.767L586.637 165.859C586.637 165.859 586.671 165.733 586.64 165.679C586.191 165.333 585.562 164.983 585.453 164.547C585.285 163.824 586.011 163.476 586.403 164.034L586.457 164.003ZM578.241 175.951C578.241 175.951 577.706 176.26 577.386 176.445C577.254 176.094 576.934 175.601 577.01 175.486C577.787 174.609 578.271 174.829 578.241 175.951ZM511.06 94.2075C514.44 95.2488 517.755 96.3632 521.113 97.4889C521.366 97.5566 521.452 98.0771 521.637 98.3979C521.114 98.6646 520.5 99.2687 520.037 99.1445C518.309 98.6814 516.657 98.1031 514.963 97.5136L514.985 97.4292C513.617 96.9721 512.226 96.5995 510.934 96.0272C510.535 95.8299 510.336 95.0534 510.059 94.5721C510.41 94.4403 510.765 94.1284 511.06 94.2075ZM506.362 92.8582L506.881 93.4494C506.549 93.6769 506.217 93.9044 505.885 94.1319C505.742 93.8224 505.63 93.5663 505.487 93.2567C505.797 93.1136 506.052 93.0014 506.362 92.8582ZM100.497 9.46841C100.497 9.46841 100.033 9.34419 99.9294 9.22594C99.5788 8.67992 99.8297 8.24984 100.721 8.12698C100.805 8.14957 101.029 8.66171 101.046 8.93738C101.001 9.1061 100.722 9.30269 100.55 9.43752L100.497 9.46841ZM84.5659 20.7059L84.1567 19.8729C84.4548 19.772 84.722 19.6175 85.0201 19.5166C85.197 19.6996 85.3429 19.8291 85.5198 20.0121C85.1878 20.2396 84.8979 20.4784 84.5659 20.7059ZM112.903 97.8732C112.903 97.8732 112.988 97.8958 113.061 97.9606C113.061 97.9606 113.007 97.9915 112.954 98.0224C112.965 97.9802 112.934 97.9267 112.903 97.8732ZM122.812 97.8158C123.495 98.1343 123.495 98.1343 124.225 98.1041C124.132 98.6216 123.873 98.9138 123.594 99.1104C123.314 98.8092 123.014 98.4123 122.778 97.9423C122.789 97.9002 122.801 97.858 122.812 97.8158ZM128.845 97.2172C129.551 96.7735 130.928 97.3684 132.316 97.2432C132.02 97.842 130.689 97.0784 130.705 98.032C130.202 97.7164 129.272 97.648 128.887 97.2285L128.845 97.2172ZM125.417 100.232C125.417 100.232 125.389 99.9983 125.634 99.9282C125.971 100.019 126.159 100.159 126.305 100.289C125.988 100.294 125.724 100.269 125.428 100.19L125.417 100.232ZM124.28 99.249C124.723 98.1018 125.792 99.3377 126.967 99.3361C126.154 99.8415 125.593 99.2391 124.28 99.249ZM131.168 98.1562C131.742 98.0386 133.542 97.3907 133.31 98.5943C132.222 98.4385 132.135 98.5959 131.168 98.1562ZM123.254 95.493C121.86 95.3003 120.829 94.9336 121.381 93.5447C122.634 94.6035 121.841 94.5268 123.254 95.493ZM121.335 92.5377C121.298 92.8442 121.683 93.2637 121.132 93.2969C121.301 92.6642 119.401 92.336 119.314 92.4934C119.609 92.5725 119.426 92.7495 119.201 92.9152C121.608 92.7011 121.519 95.3899 119.407 94.5074C119.509 94.1278 119.45 93.8408 119.338 93.5848C118.829 93.6293 117.751 92.9334 117.811 93.7182C119.748 93.7399 118.214 94.9112 119.416 95.821C119.745 95.7735 119.527 94.9013 120.342 94.8937C120.755 95.5467 119.888 96.083 120.326 96.4716C121.248 96.4022 120.912 95.634 121.267 95.3222C122.183 95.6128 122.73 96.4375 121.543 96.4813C122.156 96.555 122.501 96.7832 122.675 97.1462C122.507 97.1011 122.431 97.2163 122.366 97.2894C122.192 96.9264 120.905 96.6719 120.351 96.8851C120.244 96.9469 120.16 96.9243 120.064 96.9439C118.884 96.6277 117.895 96.2723 116.959 95.886C117.178 96.0803 117.26 96.2829 116.869 96.2234C116.532 96.1331 116.29 96.0231 116.06 95.871C115.791 95.5276 115.521 95.1841 115.305 94.8098C115.727 94.9228 116.064 95.0131 116.339 94.9965C116.011 94.3661 114.87 94.2412 114.607 93.5378C116.347 93.9586 116.654 95.1712 117.696 95.4958C117.833 94.3117 116.824 93.8607 116.148 93.1821C116.012 91.8347 118.2 93.2798 119.033 92.1922C117.755 92.0756 116.388 92.1164 115.213 92.7958C114.946 92.2724 114.612 92.002 114.267 91.7739C114.419 91.5434 114.571 91.3129 114.754 91.1359C115.417 91.3588 116.027 91.6125 116.628 91.7285C116.26 91.5846 117.002 91.5122 117.345 91.2426C118.641 91.6349 119.925 92.0693 121.209 92.5038L121.335 92.5377ZM110.6 97.0299C110.52 97.3252 110.161 97.3192 109.997 97.5918C110.733 97.8795 112.069 97.7852 112.484 98.2582C112.442 98.2469 112.388 98.2778 112.304 98.2552C111.082 97.9277 109.86 97.6002 108.637 97.2726C108.933 96.6738 109.495 97.2763 110.546 97.0608L110.6 97.0299ZM117.292 103.751C117.511 103.945 117.73 104.139 117.96 104.291C117.623 104.201 117.328 104.122 117.036 103.863C117.112 103.748 117.238 103.782 117.292 103.751ZM270.493 218.173C270.493 218.173 270.959 218.117 271.108 218.066C270.895 218.19 270.692 218.271 270.523 218.226C270.523 218.226 270.523 218.226 270.493 218.173ZM180.079 164.968C179.784 164.889 179.447 164.799 179.141 164.762C179.349 164.321 179.681 164.093 180.274 164.071C180.195 164.367 180.17 164.631 180.133 164.937L180.079 164.968ZM158.927 125.892C159.242 126.067 159.461 126.261 159.764 126.478C159.362 126.461 158.921 126.252 158.668 126.185C158.702 126.058 158.809 125.996 158.916 125.935L158.927 125.892ZM163.899 132.966C163.564 133.373 163.223 133.463 162.875 133.415C162.698 133.232 162.521 133.049 162.302 132.854C162.743 133.063 163.229 133.103 163.857 132.954L163.899 132.966ZM156.919 125.128C157.129 125.185 157.298 125.23 157.455 125.317C157.579 125.531 157.573 125.891 157.952 125.993C157.693 126.285 157.145 126.138 156.678 126.194C156.316 125.69 156.906 125.848 156.877 125.117L156.919 125.128ZM161.606 132.08C161.606 132.08 161.679 132.145 161.71 132.198C161.626 132.176 161.595 132.122 161.522 132.058C161.522 132.058 161.564 132.069 161.606 132.08ZM242.005 233.279C242.005 233.279 242.382 233.56 242.516 233.732C242.184 233.96 241.906 234.156 241.574 234.384C241.42 234.116 241.265 233.849 241.1 233.624C241.398 233.523 241.654 233.411 241.952 233.31L242.005 233.279ZM140.938 66.4162C140.556 65.8167 139.958 65.5208 139.326 65.3514C140.256 65.4199 141.088 65.6879 141.897 66.0403C141.537 66.0343 141.239 66.1353 140.938 66.4162ZM121.586 77.7768C122.176 77.9349 121.793 78.6911 122.383 78.8493C121.823 79.4225 120.776 78.1023 121.586 77.7768ZM118.242 77.1068C118.967 77.4366 120.279 77.4267 120.256 78.1889C118.331 77.4472 118.715 78.5446 117.709 78.5914C117.721 77.8713 118.291 77.9338 118.231 77.149L118.242 77.1068ZM89.1805 80.5313C89.4591 80.3347 90.1499 80.7911 90.5971 80.6396C90.3833 80.7632 90.1695 80.8867 89.9865 81.0637C89.7788 80.8272 89.1857 80.8492 89.1805 80.5313ZM76.6632 82.7378C76.9726 82.5947 77.279 82.6316 77.6161 82.7219C77.6244 82.8597 77.6213 83.0398 77.6296 83.1776C77.1207 83.2221 76.7271 83.3426 76.6632 82.7378ZM93.6773 91.2298C93.7451 90.9767 93.6947 90.8276 93.5374 90.7402C93.5939 90.5293 94.0463 90.6958 94.0832 90.3892C94.7576 90.5699 94.4555 91.5287 93.6886 91.1876L93.6773 91.2298ZM94.9509 91.0286C94.9509 91.0286 95.2942 90.7589 95.4464 90.5284C95.8257 90.6301 96.1938 90.7739 96.5618 90.9177C96.0551 91.4601 95.5966 91.6536 94.9509 91.0286ZM97.0141 91.0841C98.0031 91.4395 99.0033 91.7527 99.9923 92.1081C99.0158 92.8863 96.5794 92.3691 97.0141 91.0841ZM100.295 93.0029C100.601 93.0398 100.969 93.1836 101.037 92.9305C100.149 92.8734 100.45 92.5924 100.529 92.2972C101.161 92.4666 101.771 92.7203 102.392 92.9319C102.335 93.1428 102.428 93.3032 102.183 93.3733C101.732 92.529 100.754 93.985 100.252 92.9916L100.295 93.0029ZM102.027 94.4616C102.027 94.4616 102.367 94.372 102.558 94.3328C102.626 94.0797 102.576 93.9306 102.419 93.8432C102.768 93.2136 103.219 94.0578 103.354 94.2295C103.095 94.5218 102.547 94.375 102.08 94.4308L102.027 94.4616ZM107.382 96.3938C107.888 96.5293 108.126 96.8193 108.353 97.1514C108.016 97.0611 107.637 96.9594 107.3 96.8691C107.272 96.6356 107.095 96.4526 107.413 96.4473L107.382 96.3938ZM111.667 101.475C111.149 102.06 110.334 102.067 109.533 101.853C110.146 101.926 110.846 101.843 111.667 101.475ZM108.52 106.644C108.211 106.788 107.84 106.824 107.303 106.635C107.363 106.244 107.68 106.239 107.698 105.836C106.967 105.867 106.409 106.938 105.682 106.11C106.857 106.108 105.891 104.991 107.012 105.698C106.909 104.902 105.703 104.85 105.589 104.096C105.713 103.632 106.604 104.187 107.059 104.173C106.89 104.806 107.491 104.922 107.322 105.555C107.867 105.204 108.351 104.746 109.197 104.792C109.061 105.976 107.735 105.53 108.605 106.667L108.52 106.644ZM109.85 106.232C109.729 106.516 109.204 106.285 108.855 106.237C109.343 105.599 109.368 105.335 109.599 104.809C110.521 104.739 110.299 105.403 110.675 105.685C110.596 105.98 109.129 105.723 109.862 106.19L109.85 106.232ZM112.057 102.212C112.032 101.799 112.238 101.538 112.336 101.338C112.474 101.33 112.581 101.268 112.761 101.271C113.179 101.564 113.562 101.485 113.925 101.311C114.357 101.382 114.779 101.495 115.147 101.639C114.509 101.83 113.735 101.848 112.912 101.718C112.749 101.991 113.009 102.874 112.503 102.739C112.582 102.444 112.127 102.457 112.099 102.224L112.057 102.212ZM111.541 107.68C111.541 107.68 111.654 107.258 111.668 107.036C111.879 107.092 112.132 107.16 112.396 107.186C111.931 107.739 112.159 107.394 112.856 107.49C112.732 107.954 112.173 107.849 111.583 107.691L111.541 107.68ZM111.067 106.242C111.088 105.66 112.009 106.268 111.937 105.526C112.389 105.692 111.761 106.518 112.79 106.387C111.999 105.633 113.12 105.662 113.254 106.511C112.671 107.169 111.724 106.825 111.056 106.284L111.067 106.242ZM115.496 103.541C114.802 103.264 114.708 103.782 114.026 103.463C114.032 103.103 114.521 102.963 114.153 102.819C114.3 102.271 114.988 102.907 115.092 103.026C114.932 102.44 115.09 102.528 115.093 101.67C115.178 101.692 115.262 101.715 115.304 101.726C115.546 101.836 115.734 101.977 115.869 102.149C115.942 102.214 116.015 102.278 116.076 102.385C115.61 102.441 115.589 103.023 115.496 103.541ZM116.295 102.58C116.534 102.869 116.772 103.159 117.022 103.407C116.781 103.297 116.711 103.053 116.309 103.035C116.322 103.491 117.202 103.41 116.853 104.04C116.164 104.081 116.288 103.617 115.706 103.597C115.892 103.24 116.289 102.94 116.242 102.61L116.295 102.58ZM114.759 107.638C114.752 106.822 115.842 107.476 116.104 107.004C116.871 107.345 116.064 107.49 116.437 107.952C116.918 107.674 117.853 108.06 118.635 108.179C117.062 109.159 115.99 108.103 114.759 107.638ZM115.964 106.514C117.094 106.003 118.146 107.641 119.308 107.184C118.477 108.092 116.944 106.732 115.964 106.514ZM123.262 109.962C123.227 110.766 122.104 109.561 121.664 110.528C121.457 110.292 120.911 108.789 120.533 109.863C120.218 109.688 119.968 109.441 119.665 109.224C120.102 108.437 121.501 108.947 122.269 108.61C121.843 109.355 123.279 109.559 124.743 109.997C124.571 110.132 124.431 110.32 124.405 110.584C123.632 110.603 123.725 110.086 123.273 109.919L123.262 109.962ZM123.999 111.425C124.149 110.697 125.054 111.029 125.4 110.58C125.827 111.01 125.127 111.094 125.455 111.725C125.062 111.167 124.735 111.713 124.041 111.436L123.999 111.425ZM125.946 110.229C126.283 110.319 126.62 110.409 126.688 110.156C127.441 110.72 125.565 111.483 125.946 110.229ZM134.532 113.253C134.246 112.634 135.471 112.781 135.274 113.18C135.603 113.133 135.553 112.984 135.502 112.834C135.713 112.891 135.924 112.947 136.135 113.004C136.185 113.153 136.224 113.344 136.221 113.524C135.673 113.378 135.102 113.315 134.543 113.21L134.532 113.253ZM138.682 116.309C138.688 115.949 138.995 115.985 139.02 115.721C139.709 115.68 139.424 116.236 139.888 116.36C139.848 116.847 139 116.303 138.671 116.351L138.682 116.309ZM139.608 115.381C138.436 115.203 137.633 114.491 136.448 113.856C136.482 113.73 136.634 113.499 136.786 113.269C136.913 113.303 137.081 113.348 137.196 113.424C137.154 113.413 137.09 113.486 136.994 113.505C137.156 113.911 137.555 114.108 137.929 113.892C137.941 113.85 137.963 113.765 137.975 113.723C138.669 113.999 139.351 114.318 139.992 114.625C139.873 114.729 139.786 114.887 139.662 115.35L139.608 115.381ZM146.051 119.323C146.051 119.323 146.312 119.528 146.47 119.616C146.781 119.971 147.093 120.325 147.393 120.722C146.443 120.558 146.081 120.054 146.04 119.365L146.051 119.323ZM149.206 122.383C149.206 122.383 148.996 122.327 148.987 122.189C149.114 122.223 149.198 122.246 149.313 122.322C149.313 122.322 149.291 122.406 149.206 122.383ZM154.03 124.444C154.03 124.444 154.224 124.225 154.312 124.068C154.564 124.136 154.86 124.215 155.101 124.325C155.011 124.662 154.594 124.867 154.03 124.444ZM155.311 126.913C155.176 127.419 154.243 126.852 154.108 126.681C154.438 125.955 154.988 126.6 155.311 126.913ZM152.982 128.187C152.687 128.108 152.392 128.029 152.097 127.95C152.016 127.747 151.977 127.556 152.033 127.345C152.86 127.295 152.82 127.782 152.993 128.145L152.982 128.187ZM151.487 127.696C151.487 127.696 151.296 127.735 151.212 127.713C151.001 127.656 150.748 127.589 150.537 127.532C150.839 127.251 151.232 127.131 151.456 127.643L151.487 127.696ZM158.415 136.74C158.336 137.036 158.13 137.297 157.667 137.173C157.692 136.909 157.707 136.686 157.847 136.498C158.058 136.554 158.258 136.653 158.457 136.752L158.415 136.74ZM154.268 135.358C154.894 135.887 156.119 136.035 155.676 137.182C155.324 136.138 154.01 136.826 154.268 135.358ZM145.003 174.15C145.007 173.292 146.465 174.09 146.149 174.593C145.567 174.572 145.692 174.108 145.003 174.15ZM147.763 172.448C148.392 172.798 149.407 172.889 148.978 173.814C148.177 173.599 147.548 173.25 147.763 172.448ZM159.875 176.643C160.134 176.351 160.559 176.284 161.149 176.442C161.333 177.441 160.102 176.975 159.875 176.643ZM180.263 190.921C180.054 191.363 180.54 191.403 180.92 191.504C179.905 191.413 178.593 190.745 178.516 189.685C179.631 190.074 180.254 190.784 181.733 190.999C181.617 191.601 180.521 191.307 180.263 190.921ZM193.747 200.954C193.767 200.372 194.369 200.488 194.824 200.474C194.874 201.301 194.109 201.458 193.747 200.954ZM202.232 226.103C202.089 225.793 201.904 225.472 201.761 225.163C201.91 225.112 202.017 225.05 202.166 225C202.166 225 202.208 225.011 202.251 225.023C202.149 225.402 202.421 225.566 202.32 225.945C202.362 225.956 202.404 225.968 202.446 225.979C202.381 226.052 202.274 226.114 202.221 226.145L202.232 226.103ZM206.382 227.305C206.382 227.305 206.509 227.339 206.551 227.35C206.551 227.35 206.486 227.423 206.444 227.412C206.444 227.412 206.424 227.316 206.382 227.305ZM230.721 230.21C230.957 230.002 231.205 229.752 231.441 229.544C231.999 229.151 232.567 228.715 233.217 228.483C233.717 228.3 234.383 228.343 234.92 228.532C235.51 228.69 235.06 230.875 234.261 231.159C233.963 231.26 233.634 231.307 233.317 231.312C232.999 231.318 232.639 231.312 232.31 231.359C231.788 230.948 231.255 230.579 230.732 230.168L230.721 230.21ZM239.523 249.793C238.877 249.845 238.253 249.814 237.575 249.813C237.233 249.405 236.921 249.05 236.579 248.642C236.517 248.535 236.402 248.459 236.34 248.352C236.489 248.302 236.65 248.209 236.799 248.158C236.948 248.108 237.108 248.015 237.288 248.018C238.294 247.971 239.354 247.894 239.723 249.213C239.763 249.405 239.565 249.804 239.512 249.835L239.523 249.793ZM263.719 260.48C263.559 259.895 263.411 259.267 263.252 258.682C263.652 258.202 264.082 257.775 264.482 257.294C264.825 257.702 265.566 258.308 265.49 258.423C264.969 259.187 264.344 259.834 263.719 260.48ZM272.617 263.181C272.407 263.124 272.1 263.088 271.996 262.969C271.604 262.412 271.897 261.993 272.777 261.912C272.861 261.935 273.085 262.447 273.101 262.723C273.11 262.861 272.789 263.046 272.66 263.192L272.617 263.181ZM457.305 78.8546C458.181 79.6318 457.961 80.1153 456.84 80.0861C456.671 80.0409 456.531 79.5513 456.346 79.2305C456.709 79.0565 457.201 78.7363 457.305 78.8546Z" fill="#4376FA"/>
</svg>
